<svg width="24" height="24" viewBox="0 0 24 24" fill="none" xmlns="http://www.w3.org/2000/svg">
<g clip-path="url(#clip0_2427_12355)">
<path d="M19.036 4.61535C18.735 4.36434 18.3822 4.18316 18.0028 4.08483C17.6234 3.9865 17.227 3.97347 16.842 4.04669L10.7193 5.19469C9.95516 5.3379 9.26508 5.74373 8.7685 6.34197C8.27191 6.9402 8.00007 7.6932 8 8.47069V15.0374C7.59644 14.7974 7.13617 14.6694 6.66667 14.6667C6.13925 14.6667 5.62368 14.8231 5.18515 15.1161C4.74662 15.4091 4.40482 15.8256 4.20299 16.3129C4.00116 16.8001 3.94835 17.3363 4.05124 17.8536C4.15413 18.3709 4.40811 18.846 4.78105 19.219C5.15399 19.5919 5.62914 19.8459 6.14643 19.9488C6.66371 20.0517 7.19989 19.9989 7.68716 19.797C8.17443 19.5952 8.5909 19.2534 8.88392 18.8149C9.17694 18.3763 9.33334 17.8608 9.33334 17.3334V11.2507C9.33331 10.9396 9.44206 10.6383 9.64075 10.399C9.83944 10.1596 10.1156 9.99726 10.4213 9.94002L17.8767 8.54002C17.9734 8.52181 18.0729 8.52524 18.1681 8.55006C18.2634 8.57487 18.3519 8.62047 18.4274 8.68356C18.503 8.74665 18.5636 8.82568 18.6049 8.91498C18.6463 9.00427 18.6674 9.10161 18.6667 9.20002V13.04C18.2634 12.7991 17.8031 12.6703 17.3333 12.6667C16.8059 12.6667 16.2903 12.8231 15.8518 13.1161C15.4133 13.4091 15.0715 13.8256 14.8697 14.3129C14.6678 14.8001 14.615 15.3363 14.7179 15.8536C14.8208 16.3709 15.0748 16.846 15.4477 17.219C15.8207 17.5919 16.2958 17.8459 16.8131 17.9488C17.3304 18.0517 17.8666 17.9989 18.3538 17.797C18.8411 17.5952 19.2576 17.2534 19.5506 16.8149C19.8436 16.3763 20 15.8608 20 15.3334V6.66669C20.0005 6.27484 19.9143 5.88775 19.7476 5.53312C19.581 5.17848 19.338 4.86508 19.036 4.61535ZM6.66667 18.6667C6.40296 18.6667 6.14517 18.5885 5.92591 18.442C5.70664 18.2955 5.53575 18.0872 5.43483 17.8436C5.33391 17.6 5.30751 17.3319 5.35895 17.0732C5.4104 16.8146 5.53739 16.577 5.72386 16.3905C5.91033 16.2041 6.14791 16.0771 6.40655 16.0256C6.66519 15.9742 6.93328 16.0006 7.17691 16.1015C7.42055 16.2024 7.62879 16.3733 7.77529 16.5926C7.9218 16.8119 8 17.0696 8 17.3334C8 17.687 7.85953 18.0261 7.60948 18.2762C7.35943 18.5262 7.02029 18.6667 6.66667 18.6667ZM17.6313 7.23202L10.1753 8.62935C9.87888 8.68584 9.59417 8.79224 9.33334 8.94402V8.47069C9.33327 8.00417 9.4963 7.5523 9.7942 7.19328C10.0921 6.83426 10.5061 6.59068 10.9647 6.50469L17.088 5.35669C17.2805 5.32065 17.4786 5.32746 17.6681 5.37663C17.8577 5.42581 18.0341 5.51613 18.1848 5.64119C18.3355 5.76624 18.4568 5.92296 18.5401 6.1002C18.6234 6.27744 18.6666 6.47085 18.6667 6.66669V7.32269C18.3359 7.20033 17.9783 7.16902 17.6313 7.23202ZM17.3333 16.6667C17.0696 16.6667 16.8118 16.5885 16.5926 16.442C16.3733 16.2955 16.2024 16.0872 16.1015 15.8436C16.0006 15.6 15.9742 15.3319 16.0256 15.0732C16.0771 14.8146 16.2041 14.577 16.3905 14.3905C16.577 14.2041 16.8146 14.0771 17.0732 14.0256C17.3319 13.9742 17.5999 14.0006 17.8436 14.1015C18.0872 14.2024 18.2955 14.3733 18.442 14.5926C18.5885 14.8119 18.6667 15.0696 18.6667 15.3334C18.6667 15.687 18.5262 16.0261 18.2761 16.2762C18.0261 16.5262 17.687 16.6667 17.3333 16.6667Z" fill="white"/>
</g>
<defs>
<clipPath id="clip0_2427_12355">
<rect width="16" height="16" fill="white" transform="translate(4 4)"/>
</clipPath>
</defs>
</svg>
