<svg width="24" height="24" viewBox="0 0 24 24" fill="none" xmlns="http://www.w3.org/2000/svg">
<path d="M21.7505 20.6896L16.0865 15.0256C17.4475 13.3916 18.1263 11.2957 17.9815 9.17401C17.8366 7.05232 16.8794 5.06813 15.3089 3.63422C13.7384 2.20032 11.6755 1.42709 9.54942 1.4754C7.42333 1.52371 5.39772 2.38983 3.89396 3.89359C2.3902 5.39735 1.52408 7.42297 1.47577 9.54906C1.42746 11.6751 2.20068 13.738 3.63459 15.3085C5.0685 16.879 7.05268 17.8363 9.17438 17.9811C11.2961 18.1259 13.3919 17.4472 15.026 16.0861L20.69 21.7501L21.7505 20.6896ZM3.00045 9.75009C3.00045 8.41506 3.39633 7.11002 4.13803 5.99999C4.87973 4.88996 5.93394 4.02479 7.16734 3.5139C8.40074 3.00301 9.75794 2.86934 11.0673 3.12979C12.3767 3.39024 13.5794 4.03311 14.5234 4.97712C15.4674 5.92112 16.1103 7.12386 16.3708 8.43323C16.6312 9.7426 16.4975 11.0998 15.9866 12.3332C15.4757 13.5666 14.6106 14.6208 13.5006 15.3625C12.3905 16.1042 11.0855 16.5001 9.75045 16.5001C7.96085 16.4981 6.24512 15.7863 4.97967 14.5209C3.71423 13.2554 3.00244 11.5397 3.00045 9.75009Z" fill="white"/>
</svg>
