<svg viewBox="0 0 203 45" xmlns="http://www.w3.org/2000/svg">
<path d="M186 0L193 12H179L186 0Z" fill="#8C8888"/>
<rect y="12" width="203" height="33" rx="4" fill="#8C8888"/>
<path d="M17.9961 32.7363H8.38672V31.8164H17.9961V32.7363ZM13.7129 32.209H12.623V29.6484H13.7129V32.209ZM16.8184 27.5156H10.666V29.5312H9.55859V26.625H15.7227V25.1484H9.54102V24.2402H16.8184V27.5156ZM17.0645 29.9648H9.55859V29.0508H17.0645V29.9648ZM26.2084 25.4707H19.4232V24.5625H26.2084V25.4707ZM27.972 32.502H18.3978V31.5879H27.972V32.502ZM26.7181 25.6816C26.7181 26.2988 26.7123 26.832 26.7005 27.2812C26.6888 27.7266 26.6556 28.2441 26.6009 28.834C26.5463 29.4238 26.4564 30.0684 26.3314 30.7676L25.2005 30.6621C25.3334 30.0059 25.4291 29.3887 25.4877 28.8105C25.5502 28.2324 25.5873 27.7168 25.599 27.2637C25.6107 26.8105 25.6166 26.2832 25.6166 25.6816V24.5625H26.7181V25.6816ZM37.1159 31.1367H36.0085V23.502H37.1159V31.1367ZM37.4323 33.7852H30.2546V32.8652H37.4323V33.7852ZM31.3679 33.1992H30.2546V30.3633H31.3679V33.1992ZM31.4206 24.2109C31.9441 24.2109 32.4187 24.3223 32.8445 24.5449C33.2741 24.7637 33.6101 25.0723 33.8523 25.4707C34.0945 25.8652 34.2155 26.3125 34.2155 26.8125C34.2155 27.3203 34.0945 27.7715 33.8523 28.166C33.6101 28.5605 33.2741 28.8691 32.8445 29.0918C32.4187 29.3145 31.9441 29.4258 31.4206 29.4258C30.8972 29.4258 30.4226 29.3145 29.9968 29.0918C29.5749 28.8691 29.2409 28.5605 28.9948 28.166C28.7488 27.7715 28.6257 27.3203 28.6257 26.8125C28.6257 26.3125 28.7488 25.8652 28.9948 25.4707C29.2409 25.0723 29.5749 24.7637 29.9968 24.5449C30.4226 24.3223 30.8972 24.2109 31.4206 24.2109ZM31.4206 25.1836C31.1003 25.1836 30.8093 25.252 30.5476 25.3887C30.2859 25.5254 30.0808 25.7168 29.9323 25.9629C29.7878 26.209 29.7155 26.4922 29.7155 26.8125C29.7155 27.1328 29.7878 27.418 29.9323 27.668C30.0808 27.918 30.2859 28.1113 30.5476 28.248C30.8093 28.3848 31.1003 28.4531 31.4206 28.4531C31.7409 28.4531 32.03 28.3848 32.2878 28.248C32.5456 28.1113 32.7488 27.918 32.8972 27.668C33.0456 27.418 33.1198 27.1328 33.1198 26.8125C33.1198 26.4922 33.0456 26.209 32.8972 25.9629C32.7488 25.7168 32.5456 25.5254 32.2878 25.3887C32.03 25.252 31.7409 25.1836 31.4206 25.1836ZM49.6909 34.0195H48.5717V23.4902H49.6909V34.0195ZM44.0659 24.2812C44.5893 24.2812 45.0561 24.4336 45.4663 24.7383C45.8764 25.043 46.1967 25.4727 46.4272 26.0273C46.6577 26.582 46.7729 27.2285 46.7729 27.9668C46.7729 28.709 46.6577 29.3574 46.4272 29.9121C46.1967 30.4668 45.8764 30.8965 45.4663 31.2012C45.0561 31.502 44.5893 31.6523 44.0659 31.6523C43.5424 31.6523 43.0737 31.502 42.6596 31.2012C42.2495 30.8965 41.9291 30.4668 41.6987 29.9121C41.4682 29.3574 41.353 28.709 41.353 27.9668C41.353 27.2285 41.4682 26.582 41.6987 26.0273C41.9291 25.4727 42.2495 25.043 42.6596 24.7383C43.0737 24.4336 43.5424 24.2812 44.0659 24.2812ZM44.0659 25.2773C43.7455 25.2773 43.4604 25.3867 43.2104 25.6055C42.9604 25.8242 42.767 26.1367 42.6303 26.543C42.4975 26.9453 42.4311 27.4199 42.4311 27.9668C42.4311 28.5098 42.4975 28.9844 42.6303 29.3906C42.767 29.7969 42.9604 30.1094 43.2104 30.3281C43.4604 30.543 43.7455 30.6504 44.0659 30.6504C44.3862 30.6504 44.6694 30.543 44.9155 30.3281C45.1655 30.1094 45.3588 29.7969 45.4955 29.3906C45.6323 28.9844 45.7006 28.5098 45.7006 27.9668C45.7006 27.4199 45.6323 26.9453 45.4955 26.543C45.3588 26.1367 45.1674 25.8242 44.9213 25.6055C44.6752 25.3867 44.3901 25.2773 44.0659 25.2773ZM60.0359 25.5645H51.4813V24.6562H60.0359V25.5645ZM60.6102 31.2012H51.0008V30.293H60.6102V31.2012ZM56.327 34.0137H55.2371V31.043H56.327V34.0137ZM55.7879 26.1035C56.5184 26.1035 57.1434 26.1719 57.6629 26.3086C58.1824 26.4414 58.5809 26.6406 58.8582 26.9062C59.1395 27.1719 59.2801 27.4961 59.2801 27.8789C59.2801 28.2461 59.1395 28.5605 58.8582 28.8223C58.5809 29.084 58.1824 29.2852 57.6629 29.4258C57.1434 29.5625 56.5184 29.6328 55.7879 29.6367C55.0574 29.6328 54.4305 29.5625 53.907 29.4258C53.3875 29.2852 52.9891 29.084 52.7117 28.8223C52.4344 28.5605 52.2957 28.2461 52.2957 27.8789C52.2957 27.4961 52.4344 27.1719 52.7117 26.9062C52.9891 26.6406 53.3875 26.4414 53.907 26.3086C54.4305 26.1719 55.0574 26.1035 55.7879 26.1035ZM55.7879 26.9414C55.284 26.9414 54.8563 26.9766 54.5047 27.0469C54.157 27.1172 53.8934 27.2227 53.7137 27.3633C53.534 27.5039 53.4441 27.6758 53.4441 27.8789C53.4441 28.0703 53.534 28.2344 53.7137 28.3711C53.8934 28.5078 54.157 28.6133 54.5047 28.6875C54.8563 28.7578 55.284 28.793 55.7879 28.793C56.284 28.793 56.7059 28.7578 57.0535 28.6875C57.4051 28.6133 57.6707 28.5078 57.8504 28.3711C58.034 28.2344 58.1258 28.0703 58.1258 27.8789C58.1258 27.6758 58.034 27.5039 57.8504 27.3633C57.6707 27.2227 57.4051 27.1172 57.0535 27.0469C56.7059 26.9766 56.284 26.9414 55.7879 26.9414ZM56.327 25.2598H55.2371V23.4434H56.327V25.2598ZM67.2228 28.4238H65.2892V27.5156H67.2228V28.4238ZM70.047 33.9902H68.9748V23.4902H70.047V33.9902ZM67.9084 33.4746H66.8537V23.6895H67.9084V33.4746ZM63.3966 24.3281C63.8537 24.3281 64.2541 24.4785 64.5978 24.7793C64.9416 25.0762 65.2072 25.5039 65.3947 26.0625C65.5861 26.6211 65.6818 27.2773 65.6818 28.0312C65.6818 28.7773 65.5861 29.4297 65.3947 29.9883C65.2072 30.5469 64.9416 30.9785 64.5978 31.2832C64.2541 31.584 63.8537 31.7363 63.3966 31.7402C62.9435 31.7363 62.5451 31.584 62.2013 31.2832C61.8576 30.9785 61.592 30.5469 61.4045 29.9883C61.2209 29.4297 61.1291 28.7773 61.1291 28.0312C61.1291 27.2773 61.2209 26.6211 61.4045 26.0625C61.592 25.5039 61.8576 25.0762 62.2013 24.7793C62.5451 24.4785 62.9435 24.3281 63.3966 24.3281ZM63.3966 25.3828C63.1388 25.3789 62.9181 25.4824 62.7345 25.6934C62.5509 25.9043 62.4103 26.209 62.3127 26.6074C62.215 27.002 62.1662 27.4766 62.1662 28.0312C62.1662 28.5781 62.215 29.0508 62.3127 29.4492C62.4103 29.8477 62.5529 30.1523 62.7404 30.3633C62.9279 30.5703 63.1466 30.6738 63.3966 30.6738C63.6505 30.6738 63.8713 30.5703 64.0588 30.3633C64.2463 30.1523 64.3908 29.8477 64.4923 29.4492C64.5939 29.0508 64.6447 28.5781 64.6447 28.0312C64.6447 27.4766 64.5939 27.002 64.4923 26.6074C64.3908 26.209 64.2463 25.9043 64.0588 25.6934C63.8713 25.4824 63.6505 25.3789 63.3966 25.3828ZM77.0321 26.1621C77.0321 26.9629 76.911 27.7363 76.6688 28.4824C76.4266 29.2246 76.0848 29.8828 75.6434 30.457C75.202 31.0312 74.6903 31.4707 74.1083 31.7754L73.411 30.8789C73.9462 30.625 74.4169 30.25 74.8231 29.7539C75.2333 29.2539 75.5536 28.6914 75.7841 28.0664C76.0145 27.4375 76.1298 26.8027 76.1298 26.1621V24.3633H77.0321V26.1621ZM77.2255 26.1621C77.2255 26.7793 77.3368 27.3887 77.5595 27.9902C77.786 28.5879 78.1005 29.125 78.5028 29.6016C78.9052 30.0742 79.3602 30.4355 79.868 30.6855L79.1884 31.5762C78.622 31.2793 78.122 30.8535 77.6884 30.2988C77.2587 29.7441 76.9266 29.1094 76.6923 28.3945C76.4579 27.6797 76.3407 26.9355 76.3407 26.1621V24.3633H77.2255V26.1621ZM81.7723 33.9902H80.6649V23.4902H81.7723V33.9902ZM83.4657 28.6348H81.5204V27.6797H83.4657V28.6348ZM87.0139 29.0098H85.9065V27.041H87.0139V29.0098ZM90.8577 29.0098H89.7502V27.041H90.8577V29.0098ZM93.178 29.5195H83.6038V28.6172H93.178V29.5195ZM88.385 30.2344C89.1428 30.2344 89.7913 30.3066 90.3303 30.4512C90.8733 30.5957 91.2893 30.8066 91.5784 31.084C91.8674 31.3613 92.012 31.7012 92.012 32.1035C92.012 32.502 91.8674 32.8398 91.5784 33.1172C91.2893 33.3945 90.8733 33.6055 90.3303 33.75C89.7913 33.8984 89.1428 33.9727 88.385 33.9727C87.6233 33.9727 86.969 33.8984 86.4221 33.75C85.8791 33.6055 85.4631 33.3945 85.1741 33.1172C84.885 32.8398 84.7405 32.502 84.7405 32.1035C84.7405 31.7012 84.885 31.3613 85.1741 31.084C85.4631 30.8066 85.8811 30.5957 86.428 30.4512C86.9748 30.3066 87.6272 30.2344 88.385 30.2344ZM88.385 31.084C87.8498 31.084 87.3948 31.123 87.0198 31.2012C86.6448 31.2793 86.3596 31.3965 86.1643 31.5527C85.969 31.7051 85.8713 31.8887 85.8713 32.1035C85.8713 32.3184 85.969 32.502 86.1643 32.6543C86.3596 32.8066 86.6448 32.9219 87.0198 33C87.3948 33.082 87.8498 33.123 88.385 33.123C88.9123 33.123 89.3635 33.082 89.7385 33C90.1174 32.9219 90.4045 32.8066 90.5998 32.6543C90.7952 32.502 90.8928 32.3184 90.8928 32.1035C90.8928 31.8887 90.7952 31.7051 90.5998 31.5527C90.4045 31.3965 90.1194 31.2793 89.7444 31.2012C89.3733 31.123 88.9202 31.084 88.385 31.084ZM88.3909 23.6777C89.1565 23.6777 89.8186 23.7559 90.3772 23.9121C90.9397 24.0684 91.3733 24.2949 91.678 24.5918C91.9827 24.8848 92.135 25.2383 92.135 25.6523C92.135 26.0547 91.9827 26.4043 91.678 26.7012C91.3772 26.9941 90.9455 27.2188 90.383 27.375C89.8205 27.5273 89.1565 27.6035 88.3909 27.6035C87.6213 27.6035 86.9534 27.5273 86.387 27.375C85.8245 27.2188 85.3909 26.9941 85.0862 26.7012C84.7815 26.4043 84.6291 26.0547 84.6291 25.6523C84.6291 25.2383 84.7815 24.8848 85.0862 24.5918C85.3909 24.2949 85.8245 24.0684 86.387 23.9121C86.9534 23.7559 87.6213 23.6777 88.3909 23.6777ZM88.3909 24.5449C87.8479 24.5449 87.3791 24.5898 86.9846 24.6797C86.594 24.7656 86.2952 24.8906 86.0881 25.0547C85.885 25.2188 85.7834 25.418 85.7834 25.6523C85.7834 25.8828 85.885 26.0801 86.0881 26.2441C86.2952 26.4082 86.594 26.5352 86.9846 26.625C87.3791 26.7109 87.8479 26.7539 88.3909 26.7539C88.9299 26.7539 89.3948 26.7109 89.7854 26.625C90.176 26.5352 90.4748 26.4082 90.6819 26.2441C90.8889 26.0801 90.9924 25.8828 90.9924 25.6523C90.9924 25.418 90.8889 25.2188 90.6819 25.0547C90.4748 24.8906 90.176 24.7656 89.7854 24.6797C89.3948 24.5898 88.9299 24.5449 88.3909 24.5449ZM101.865 29.2324H100.757V23.4609H101.865V29.2324ZM103.406 26.8242H101.396V25.9219H103.406V26.8242ZM101.865 32.168H96.193V33.3516H95.0973V31.377H100.757V30.5508H95.0797V29.7363H101.865V32.168ZM102.228 33.8906H95.0973V33.0527H102.228V33.8906ZM99.8785 25.2598H93.6266V24.3926H99.8785V25.2598ZM96.7555 25.6582C97.2633 25.6582 97.7105 25.7285 98.0973 25.8691C98.484 26.0059 98.7809 26.2051 98.9879 26.4668C99.1988 26.7246 99.3043 27.0293 99.3043 27.3809C99.3043 27.7285 99.1988 28.0332 98.9879 28.2949C98.7809 28.5527 98.484 28.752 98.0973 28.8926C97.7145 29.0332 97.2672 29.1035 96.7555 29.1035C96.2477 29.1035 95.7984 29.0332 95.4078 28.8926C95.0211 28.752 94.7223 28.5527 94.5113 28.2949C94.3043 28.0332 94.2008 27.7285 94.2008 27.3809C94.2008 27.0293 94.3043 26.7246 94.5113 26.4668C94.7223 26.2051 95.0211 26.0059 95.4078 25.8691C95.7984 25.7285 96.2477 25.6582 96.7555 25.6582ZM96.7555 26.4609C96.4625 26.4609 96.2027 26.5 95.9762 26.5781C95.7496 26.6523 95.5758 26.7598 95.4547 26.9004C95.3336 27.0371 95.273 27.1973 95.273 27.3809C95.273 27.5645 95.3336 27.7266 95.4547 27.8672C95.5758 28.0039 95.7477 28.1094 95.9703 28.1836C96.193 28.2539 96.4547 28.2891 96.7555 28.2891C97.0602 28.2891 97.3238 28.2539 97.5465 28.1836C97.7691 28.1094 97.943 28.0039 98.068 27.8672C98.193 27.7266 98.2555 27.5645 98.2555 27.3809C98.2555 27.1895 98.193 27.0273 98.068 26.8945C97.943 26.7578 97.7672 26.6523 97.5406 26.5781C97.318 26.5 97.0563 26.4609 96.7555 26.4609ZM97.3121 25.002H96.2047V23.3965H97.3121V25.002ZM111.387 24.416C111.387 25.0645 111.196 25.6621 110.813 26.209C110.43 26.7559 109.91 27.2109 109.254 27.5742C108.602 27.9336 107.883 28.1758 107.098 28.3008L106.653 27.4043C107.332 27.3145 107.959 27.1211 108.534 26.8242C109.108 26.5273 109.563 26.168 109.899 25.7461C110.239 25.3242 110.409 24.8809 110.409 24.416V23.8477H111.387V24.416ZM111.563 24.416C111.563 24.877 111.733 25.3203 112.073 25.7461C112.416 26.168 112.877 26.5273 113.455 26.8242C114.037 27.1211 114.664 27.3145 115.336 27.4043L114.897 28.3008C114.108 28.1758 113.387 27.9316 112.735 27.5684C112.082 27.2051 111.563 26.75 111.176 26.2031C110.789 25.6562 110.596 25.0605 110.596 24.416V23.8477H111.563V24.416ZM111.51 33.9902H110.414V30.0352H111.51V33.9902ZM115.77 30.2637H106.196V29.3379H115.77V30.2637ZM122.21 30.4395C122.21 30.9238 122.116 31.3926 121.929 31.8457C121.745 32.2949 121.474 32.6934 121.114 33.041C120.759 33.3887 120.327 33.6562 119.819 33.8438L119.263 33.0293C119.7 32.8691 120.073 32.6523 120.382 32.3789C120.694 32.1016 120.933 31.7949 121.097 31.459C121.261 31.123 121.343 30.7832 121.343 30.4395V29.9355H122.21V30.4395ZM122.421 30.4395C122.421 30.791 122.491 31.1406 122.632 31.4883C122.772 31.832 122.983 32.1445 123.265 32.4258C123.546 32.707 123.894 32.9316 124.308 33.0996L123.851 33.9316C123.347 33.7402 122.927 33.4629 122.591 33.0996C122.259 32.7363 122.013 32.3262 121.853 31.8691C121.696 31.4121 121.618 30.9355 121.618 30.4395V29.9355H122.421V30.4395ZM126.065 30.4395C126.065 30.8926 125.983 31.3496 125.819 31.8105C125.659 32.2676 125.413 32.6836 125.081 33.0586C124.749 33.4375 124.339 33.7285 123.851 33.9316L123.382 33.0996C123.784 32.916 124.126 32.6758 124.407 32.3789C124.692 32.0781 124.903 31.7578 125.04 31.418C125.181 31.0781 125.251 30.752 125.251 30.4395V29.9355H126.065V30.4395ZM126.347 30.4395C126.347 30.8066 126.427 31.1602 126.587 31.5C126.747 31.8359 126.983 32.1387 127.296 32.4082C127.612 32.6777 127.989 32.8848 128.427 33.0293L127.882 33.8438C127.366 33.6641 126.929 33.4043 126.569 33.0645C126.21 32.7246 125.939 32.3301 125.755 31.8809C125.571 31.4277 125.48 30.9473 125.48 30.4395V29.9355H126.347V30.4395ZM127.483 29.4785H126.376V23.502H127.483V29.4785ZM121.788 24.0879C122.319 24.0879 122.796 24.1934 123.218 24.4043C123.644 24.6113 123.978 24.9043 124.22 25.2832C124.462 25.6582 124.583 26.0879 124.583 26.5723C124.583 27.0449 124.462 27.4688 124.22 27.8438C123.978 28.2188 123.644 28.5098 123.218 28.7168C122.796 28.9238 122.319 29.0273 121.788 29.0273C121.257 29.0273 120.778 28.9238 120.353 28.7168C119.931 28.5098 119.599 28.2188 119.356 27.8438C119.114 27.4688 118.993 27.0449 118.993 26.5723C118.993 26.0879 119.114 25.6582 119.356 25.2832C119.599 24.9043 119.931 24.6113 120.353 24.4043C120.778 24.1934 121.257 24.0879 121.788 24.0879ZM121.788 25.0312C121.46 25.0234 121.165 25.084 120.903 25.2129C120.646 25.3418 120.444 25.5254 120.3 25.7637C120.155 25.998 120.083 26.2676 120.083 26.5723C120.083 26.8652 120.155 27.1289 120.3 27.3633C120.444 27.5938 120.646 27.7734 120.903 27.9023C121.165 28.0312 121.46 28.0996 121.788 28.1074C122.116 28.0996 122.407 28.0312 122.661 27.9023C122.919 27.7734 123.12 27.5938 123.265 27.3633C123.413 27.1289 123.487 26.8652 123.487 26.5723C123.487 26.2676 123.415 25.998 123.271 25.7637C123.126 25.5254 122.925 25.3418 122.667 25.2129C122.409 25.084 122.116 25.0234 121.788 25.0312ZM137.295 27.4512H130.047V26.5723H137.295V27.4512ZM138.385 29.6719H128.776V28.7812H138.385V29.6719ZM131.155 27.0176H130.047V23.877H131.155V27.0176ZM137.354 33.7441H129.977V32.8301H137.354V33.7441ZM131.09 33.0938H129.977V30.6738H131.09V33.0938ZM150.099 33.9902H148.974V23.4902H150.099V33.9902ZM146.982 24.6211C146.982 25.6914 146.816 26.6816 146.484 27.5918C146.155 28.498 145.628 29.334 144.901 30.0996C144.175 30.8613 143.23 31.5215 142.066 32.0801L141.468 31.1777C142.48 30.7012 143.31 30.1465 143.958 29.5137C144.61 28.8809 145.093 28.1738 145.405 27.3926C145.718 26.6113 145.874 25.748 145.874 24.8027V24.6211H146.982ZM146.355 25.5117H141.978V24.6211H146.355V25.5117ZM159.87 27.2344H152.657V26.3262H159.87V27.2344ZM153.764 26.7363H152.657V23.6895H153.764V26.7363ZM160.965 29.2617H151.379V28.3535H160.965V29.2617ZM156.161 30.1172C156.918 30.1172 157.569 30.1914 158.112 30.3398C158.655 30.4844 159.069 30.7012 159.354 30.9902C159.643 31.2793 159.788 31.627 159.788 32.0332C159.788 32.4355 159.643 32.7793 159.354 33.0645C159.069 33.3535 158.655 33.5723 158.112 33.7207C157.569 33.873 156.918 33.9492 156.161 33.9492C155.403 33.9492 154.75 33.873 154.204 33.7207C153.657 33.5723 153.239 33.3535 152.95 33.0645C152.661 32.7793 152.516 32.4355 152.516 32.0332C152.516 31.627 152.661 31.2793 152.95 30.9902C153.239 30.7012 153.657 30.4844 154.204 30.3398C154.75 30.1914 155.403 30.1172 156.161 30.1172ZM156.161 30.9844C155.625 30.9844 155.168 31.0254 154.79 31.1074C154.411 31.1855 154.125 31.3027 153.934 31.459C153.743 31.6152 153.647 31.8066 153.647 32.0332C153.647 32.2559 153.745 32.4473 153.94 32.6074C154.135 32.7637 154.42 32.8848 154.795 32.9707C155.17 33.0527 155.625 33.0938 156.161 33.0938C156.688 33.0938 157.139 33.0527 157.514 32.9707C157.893 32.8848 158.18 32.7637 158.375 32.6074C158.571 32.4473 158.668 32.2559 158.668 32.0332C158.668 31.8066 158.571 31.6152 158.375 31.459C158.18 31.3027 157.895 31.1855 157.52 31.1074C157.149 31.0254 156.696 30.9844 156.161 30.9844ZM170.098 29.1328H168.99V23.4902H170.098V29.1328ZM164.326 30.8086H168.996V29.6367H170.098V33.8613H163.224V29.6367H164.326V30.8086ZM168.996 32.959V31.6875H164.326V32.959H168.996ZM164.402 23.9824C164.933 23.9746 165.41 24.0742 165.832 24.2812C166.258 24.4844 166.592 24.7734 166.834 25.1484C167.076 25.5195 167.197 25.9434 167.197 26.4199C167.197 26.8848 167.076 27.3027 166.834 27.6738C166.592 28.041 166.258 28.3281 165.832 28.5352C165.41 28.7422 164.933 28.8457 164.402 28.8457C163.871 28.8457 163.392 28.7422 162.967 28.5352C162.545 28.3281 162.213 28.041 161.971 27.6738C161.728 27.3027 161.607 26.8848 161.607 26.4199C161.607 25.9434 161.728 25.5195 161.971 25.1484C162.213 24.7734 162.545 24.4844 162.967 24.2812C163.392 24.0742 163.871 23.9746 164.402 23.9824ZM164.402 24.9141C164.074 24.9062 163.779 24.9668 163.517 25.0957C163.26 25.2246 163.058 25.4043 162.914 25.6348C162.769 25.8613 162.697 26.123 162.697 26.4199C162.697 26.7129 162.769 26.9746 162.914 27.2051C163.058 27.4316 163.26 27.6094 163.517 27.7383C163.779 27.8672 164.074 27.9316 164.402 27.9316C164.73 27.9316 165.023 27.8672 165.281 27.7383C165.539 27.6094 165.74 27.4316 165.885 27.2051C166.029 26.9746 166.101 26.7129 166.101 26.4199C166.101 26.123 166.027 25.8613 165.879 25.6348C165.734 25.4043 165.533 25.2246 165.275 25.0957C165.021 24.9668 164.73 24.9062 164.402 24.9141ZM180.114 33.9902H179.013V23.4902H180.114V33.9902ZM173.142 31.0254H172.046V24.5156H173.142V31.0254ZM172.925 30.3691C173.769 30.3691 174.611 30.332 175.45 30.2578C176.294 30.1797 177.138 30.0527 177.982 29.877L178.128 30.8145C177.245 30.9941 176.378 31.125 175.527 31.207C174.679 31.2852 173.812 31.3242 172.925 31.3242H172.046V30.3691H172.925ZM189.592 34.0195H188.485V23.4902H189.592V34.0195ZM191.286 28.4824H189.34V27.5625H191.286V28.4824ZM182.708 30.4863C183.7 30.4863 184.567 30.4609 185.309 30.4102C186.051 30.3555 186.799 30.2598 187.553 30.123L187.688 31.0723C186.922 31.209 186.165 31.3008 185.415 31.3477C184.669 31.3906 183.766 31.4121 182.708 31.4121H181.858V30.4863H182.708ZM186.768 25.4121H182.965V30.9199H181.858V24.498H186.768V25.4121ZM192.619 33.082C192.471 33.082 192.332 33.043 192.203 32.9648C192.074 32.8867 191.973 32.7852 191.898 32.6602C191.828 32.5312 191.793 32.3926 191.793 32.2441C191.793 32.0996 191.828 31.9629 191.898 31.834C191.973 31.7051 192.074 31.6055 192.203 31.5352C192.332 31.4609 192.471 31.4238 192.619 31.4238C192.764 31.4238 192.9 31.4609 193.029 31.5352C193.158 31.6055 193.26 31.7051 193.334 31.834C193.408 31.9629 193.445 32.0996 193.445 32.2441C193.445 32.3926 193.408 32.5312 193.334 32.6602C193.26 32.7852 193.158 32.8867 193.029 32.9648C192.9 33.043 192.764 33.082 192.619 33.082Z" fill="white"/>
</svg>




