<svg width="24" height="24" viewBox="0 0 24 24" fill="none" xmlns="http://www.w3.org/2000/svg">
<path fill-rule="evenodd" clip-rule="evenodd" d="M13.8735 4.54212C14.2382 4.17102 14.6728 3.87582 15.1523 3.67358C15.6317 3.47134 16.1464 3.36606 16.6668 3.36381C17.1871 3.36156 17.7027 3.46238 18.1839 3.66047C18.6651 3.85856 19.1022 4.14998 19.4702 4.51792C19.8381 4.88585 20.1295 5.32302 20.3276 5.80418C20.5257 6.28535 20.6265 6.80098 20.6243 7.32131C20.622 7.84165 20.5167 8.35639 20.3145 8.83582C20.1123 9.31525 19.8171 9.74988 19.446 10.1146L16.572 12.9901L15.5115 11.9296L18.3855 9.05562C18.8218 8.59386 19.0608 7.98017 19.0518 7.34496C19.0428 6.70974 18.7864 6.10308 18.3372 5.65387C17.888 5.20466 17.2813 4.94832 16.6461 4.93931C16.0109 4.9303 15.3972 5.16934 14.9355 5.60562L11.7795 8.75412L10.719 7.69362L13.8735 4.54212ZM15.519 9.54163L9.52496 15.5356L8.46297 14.4736L14.46 8.48112L15.519 9.54163ZM8.53197 12.0061L5.65797 14.8801C5.22168 15.3419 4.98264 15.9556 4.99165 16.5908C5.00066 17.226 5.257 17.8327 5.70621 18.2819C6.15542 18.7311 6.76208 18.9874 7.3973 18.9964C8.03251 19.0054 8.6462 18.7664 9.10796 18.3301L11.982 15.4576L13.0425 16.5181L10.1685 19.3921C9.42732 20.1206 8.42845 20.5267 7.38927 20.5222C6.3501 20.5177 5.35478 20.1029 4.61997 19.3681C3.88515 18.6333 3.47035 17.638 3.46586 16.5988C3.46136 15.5596 3.86754 14.5608 4.59596 13.8196L7.46996 10.9456L8.53197 12.0061Z" fill="white"/>
</svg>
