<svg width="16" height="16" viewBox="0 0 16 16" fill="none" xmlns="http://www.w3.org/2000/svg">
    <path d="M11.9995 5.62033C11.9117 5.61982 11.8248 5.63664 11.7435 5.66982C11.6623 5.70299 11.5884 5.75187 11.5261 5.81366L8.47281 8.87366C8.41083 8.93614 8.3371 8.98574 8.25586 9.01958C8.17462 9.05343 8.08748 9.07085 7.99947 9.07085C7.91146 9.07085 7.82433 9.05343 7.74309 9.01958C7.66185 8.98574 7.58811 8.93614 7.52614 8.87366L4.47281 5.81366C4.34727 5.68813 4.17701 5.6176 3.99947 5.6176C3.82194 5.6176 3.65168 5.68813 3.52614 5.81366C3.4006 5.9392 3.33008 6.10946 3.33008 6.28699C3.33008 6.3749 3.34739 6.46195 3.38103 6.54316C3.41467 6.62438 3.46398 6.69817 3.52614 6.76033L6.58614 9.81365C6.9661 10.1787 7.47257 10.3826 7.99947 10.3826C8.52638 10.3826 9.03285 10.1787 9.41281 9.81365L12.4728 6.76033C12.5353 6.69835 12.5849 6.62462 12.6187 6.54338C12.6526 6.46214 12.67 6.375 12.67 6.28699C12.67 6.19899 12.6526 6.11185 12.6187 6.03061C12.5849 5.94937 12.5353 5.87564 12.4728 5.81366C12.4105 5.75187 12.3366 5.70299 12.2554 5.66982C12.1742 5.63664 12.0872 5.61982 11.9995 5.62033Z" fill="#D5D5D5"/>
</svg>
