<svg width="24" height="24" viewBox="0 0 24 24" fill="none" xmlns="http://www.w3.org/2000/svg">
    <path d="M12.2549 3.573C12.6323 3.37802 13.031 3.22703 13.4429 3.123C13.4789 3.933 13.7309 4.734 14.0729 5.499C14.5589 6.5805 15.2729 7.6845 15.9689 8.754L16.0499 8.877C16.7324 9.9225 17.3999 10.944 17.9069 11.97C18.4319 13.0335 18.7544 14.0385 18.7544 15C18.7544 16.7295 18.2369 18.2205 17.2664 19.272C16.3064 20.3145 14.8304 21 12.7544 21C10.6589 21 9.20237 20.394 8.18537 19.4625C7.15487 18.5205 6.50237 17.178 6.14837 15.5865C5.81537 14.0895 6.10937 12.747 6.50087 11.7615C6.56487 11.6015 6.62987 11.4515 6.69587 11.3115L6.88337 11.688C7.01886 11.9599 7.20663 12.2023 7.43594 12.4015C7.66524 12.6007 7.93158 12.7527 8.21971 12.8489C8.50784 12.945 8.8121 12.9834 9.11508 12.9618C9.41805 12.9402 9.71379 12.859 9.98537 12.723C11.2544 12.0885 11.6054 10.533 11.0684 9.369C10.5104 8.1585 10.0754 6.654 10.4639 5.487C10.7564 4.611 11.4509 3.987 12.2534 3.573M6.16487 9.2835L6.16187 9.2895L6.15437 9.2985L6.13037 9.3285L6.05387 9.435C5.98787 9.526 5.90287 9.654 5.79887 9.819C5.5283 10.2612 5.29644 10.7259 5.10587 11.208C4.64087 12.378 4.26587 14.0355 4.68437 15.9135C5.08187 17.6985 5.84687 19.3545 7.17287 20.5695C8.51087 21.7935 10.3484 22.5 12.7544 22.5C15.1814 22.5 17.0804 21.6855 18.3689 20.2905C19.6484 18.9045 20.2544 17.0205 20.2544 15C20.2544 13.7115 19.8269 12.4665 19.2509 11.304C18.7034 10.197 17.9909 9.108 17.3234 8.0835L17.2259 7.9335C16.5164 6.846 15.8699 5.841 15.4409 4.884C15.0119 3.927 14.8454 3.114 14.9879 2.397C15.0096 2.28823 15.007 2.176 14.9801 2.06838C14.9532 1.96076 14.9028 1.86044 14.8325 1.77465C14.7622 1.68885 14.6738 1.61972 14.5735 1.57223C14.4733 1.52474 14.3638 1.50007 14.2529 1.5C13.6199 1.5 12.5654 1.722 11.5649 2.2395C10.5554 2.763 9.49937 3.639 9.04187 5.013C8.45687 6.768 9.13037 8.748 9.70637 9.9975C9.96287 10.5525 9.73937 11.1675 9.31487 11.3805C9.21958 11.4284 9.11576 11.457 9.00938 11.4647C8.903 11.4723 8.79615 11.4589 8.69497 11.4252C8.59379 11.3915 8.50026 11.3381 8.41976 11.2681C8.33926 11.1982 8.27337 11.113 8.22587 11.0175L7.42337 9.414C7.36696 9.30119 7.283 9.20442 7.17927 9.13266C7.07554 9.0609 6.95539 9.01646 6.82993 9.00345C6.70447 8.99044 6.57775 9.00928 6.4615 9.05823C6.34526 9.10718 6.24323 9.18466 6.16487 9.2835Z" fill="#FF3637"/>
</svg>
