<svg width="24" height="24" viewBox="0 0 24 24" fill="none" xmlns="http://www.w3.org/2000/svg">
    <g clip-path="url(#clip0_2974_13526)">
        <path d="M6.8125 10.3571L10.4411 4.55712C10.5817 4.32788 10.7793 4.13896 11.0146 4.00878C11.25 3.87859 11.515 3.81158 11.7839 3.81426C11.9957 3.80662 12.2069 3.84151 12.405 3.91687C12.6031 3.99224 12.7841 4.10655 12.9372 4.25304C13.0904 4.39954 13.2126 4.57525 13.2967 4.76979C13.3808 4.96434 13.425 5.17376 13.4268 5.38569V9.54284H19.6982C19.9299 9.55035 20.1575 9.60683 20.3658 9.70857C20.5742 9.8103 20.7586 9.95498 20.907 10.1331C21.0555 10.3112 21.1645 10.5187 21.227 10.742C21.2895 10.9653 21.304 11.1993 21.2696 11.4286L20.1268 18.8C20.078 19.1939 19.8871 19.5565 19.5898 19.8196C19.2926 20.0826 18.9094 20.2281 18.5125 20.2285H9.14107C8.69496 20.2303 8.25463 20.1276 7.85536 19.9286L6.82679 19.4143" fill="#880405"/>
        <path d="M6.8125 10.3571L10.4411 4.55712C10.5817 4.32788 10.7793 4.13896 11.0146 4.00878C11.25 3.87859 11.515 3.81158 11.7839 3.81426V3.81426C11.9957 3.80662 12.2069 3.84151 12.405 3.91687C12.6031 3.99224 12.7841 4.10655 12.9372 4.25304C13.0904 4.39954 13.2126 4.57525 13.2967 4.76979C13.3808 4.96434 13.425 5.17376 13.4268 5.38569V9.54284H19.6982C19.9299 9.55035 20.1575 9.60683 20.3658 9.70857C20.5742 9.8103 20.7586 9.95498 20.907 10.1331C21.0555 10.3112 21.1645 10.5187 21.227 10.742C21.2895 10.9653 21.304 11.1993 21.2696 11.4286L20.1268 18.8C20.078 19.1939 19.8871 19.5565 19.5898 19.8196C19.2926 20.0826 18.9095 20.2281 18.5125 20.2286H9.14107C8.69496 20.2303 8.25463 20.1276 7.85536 19.9286L6.82679 19.4143" stroke="#FF3637" stroke-width="1.42857" stroke-linecap="round" stroke-linejoin="round"/>
        <path d="M6.8125 10.3572V19.3715" stroke="#FF3637" stroke-width="1.42857" stroke-linecap="round" stroke-linejoin="round"/>
        <path d="M3.42718 10.3572H6.81289V19.3715H3.42718C3.23774 19.3715 3.05605 19.2962 2.9221 19.1623C2.78815 19.0283 2.71289 18.8466 2.71289 18.6572V11.0715C2.71289 10.882 2.78815 10.7003 2.9221 10.5664C3.05605 10.4324 3.23774 10.3572 3.42718 10.3572Z" fill="#880405" stroke="#FF3637" stroke-width="1.42857" stroke-linecap="round" stroke-linejoin="round"/>
    </g>
    <defs>
        <clipPath id="clip0_2974_13526">
            <rect width="20" height="20" fill="white" transform="translate(2 2)"/>
        </clipPath>
    </defs>
</svg>
