<svg width="24" height="24" viewBox="0 0 24 24" fill="none" xmlns="http://www.w3.org/2000/svg">
    <g clip-path="url(#clip0_2974_9271)">
        <path d="M6.8125 13.6428L10.4411 19.4428C10.5817 19.6721 10.7793 19.861 11.0146 19.9912C11.25 20.1213 11.515 20.1884 11.7839 20.1857C11.9957 20.1933 12.2069 20.1584 12.405 20.0831C12.6031 20.0077 12.7841 19.8934 12.9372 19.7469C13.0904 19.6004 13.2126 19.4247 13.2967 19.2301C13.3808 19.0356 13.425 18.8262 13.4268 18.6142V14.4571H19.6982C19.9299 14.4496 20.1575 14.3931 20.3658 14.2914C20.5742 14.1896 20.7586 14.045 20.907 13.8668C21.0555 13.6887 21.1645 13.4812 21.227 13.2579C21.2895 13.0347 21.304 12.8007 21.2696 12.5714L20.1268 5.19996C20.078 4.80601 19.8871 4.44343 19.5898 4.18037C19.2926 3.9173 18.9095 3.77186 18.5125 3.77138H9.14107C8.69496 3.76964 8.25463 3.87238 7.85536 4.07138L6.82679 4.58567" stroke="white" stroke-width="1.42857" stroke-linecap="round" stroke-linejoin="round"/>
        <path d="M6.8125 13.6428V4.62854" stroke="white" stroke-width="1.42857" stroke-linecap="round" stroke-linejoin="round"/>
        <path d="M3.42718 4.62854H6.81289V13.6428H3.42718C3.23774 13.6428 3.05605 13.5676 2.9221 13.4336C2.78815 13.2997 2.71289 13.118 2.71289 12.9285V5.34283C2.71289 5.15339 2.78815 4.9717 2.9221 4.83775C3.05605 4.70379 3.23774 4.62854 3.42718 4.62854V4.62854Z" stroke="white" stroke-width="1.42857" stroke-linecap="round" stroke-linejoin="round"/>
    </g>
    <defs>
        <clipPath id="clip0_2974_9271">
            <rect width="20" height="20" fill="white" transform="translate(2 2)"/>
        </clipPath>
    </defs>
</svg>
