<svg width="16" height="16" viewBox="0 0 16 16" fill="none" xmlns="http://www.w3.org/2000/svg">
<rect width="16" height="16" fill="black"/>
<g clip-path="url(#clip0_2506_40962)">
<path d="M8.0002 15.0004C11.8663 15.0004 15.0004 11.8663 15.0004 8.0002C15.0004 4.13409 11.8663 1 8.0002 1C4.13409 1 1 4.13409 1 8.0002C1 11.8663 4.13409 15.0004 8.0002 15.0004Z" fill="url(#paint0_linear_2506_40962)"/>
<g filter="url(#filter0_d_2506_40962)">
<path d="M7.99911 14.4544C11.5637 14.4544 14.4533 11.5648 14.4533 8.00021C14.4533 4.43566 11.5637 1.54602 7.99911 1.54602C4.43456 1.54602 1.54492 4.43566 1.54492 8.00021C1.54492 11.5648 4.43456 14.4544 7.99911 14.4544Z" fill="url(#paint1_linear_2506_40962)"/>
</g>
<g filter="url(#filter1_d_2506_40962)">
<path d="M8.00058 13.9139C11.2666 13.9139 13.9142 11.2662 13.9142 8.00022C13.9142 4.73419 11.2666 2.08655 8.00058 2.08655C4.73455 2.08655 2.08691 4.73419 2.08691 8.00022C2.08691 11.2662 4.73455 13.9139 8.00058 13.9139Z" fill="url(#paint2_linear_2506_40962)"/>
</g>
<g filter="url(#filter2_d_2506_40962)">
<path d="M7.99992 13.38C10.9711 13.38 13.3797 10.9713 13.3797 8.00016C13.3797 5.02898 10.9711 2.62036 7.99992 2.62036C5.02874 2.62036 2.62012 5.02898 2.62012 8.00016C2.62012 10.9713 5.02874 13.38 7.99992 13.38Z" fill="url(#paint3_linear_2506_40962)"/>
</g>
<g filter="url(#filter3_d_2506_40962)">
<path d="M7.99946 12.8551C10.6808 12.8551 12.8544 10.6815 12.8544 8.00019C12.8544 5.31889 10.6808 3.14526 7.99946 3.14526C5.31816 3.14526 3.14453 5.31889 3.14453 8.00019C3.14453 10.6815 5.31816 12.8551 7.99946 12.8551Z" fill="url(#paint4_linear_2506_40962)"/>
</g>
<g filter="url(#filter4_d_2506_40962)">
<path d="M7.99942 12.3424C10.3976 12.3424 12.3416 10.3983 12.3416 8.00015C12.3416 5.60203 10.3976 3.65796 7.99942 3.65796C5.60129 3.65796 3.65723 5.60203 3.65723 8.00015C3.65723 10.3983 5.60129 12.3424 7.99942 12.3424Z" fill="url(#paint5_linear_2506_40962)"/>
</g>
<g filter="url(#filter5_d_2506_40962)">
<path d="M8 11.8469C10.1245 11.8469 11.8467 10.1247 11.8467 8.00025C11.8467 5.87578 10.1245 4.15356 8 4.15356C5.87554 4.15356 4.15332 5.87578 4.15332 8.00025C4.15332 10.1247 5.87554 11.8469 8 11.8469Z" fill="url(#paint6_linear_2506_40962)"/>
</g>
<g filter="url(#filter6_d_2506_40962)">
<path d="M8.00044 11.3756C9.86464 11.3756 11.3759 9.86439 11.3759 8.00019C11.3759 6.13599 9.86464 4.62476 8.00044 4.62476C6.13623 4.62476 4.625 6.13599 4.625 8.00019C4.625 9.86439 6.13623 11.3756 8.00044 11.3756Z" fill="url(#paint7_linear_2506_40962)"/>
</g>
<g filter="url(#filter7_d_2506_40962)">
<path d="M7.99997 10.9416C9.62444 10.9416 10.9413 9.62469 10.9413 8.00021C10.9413 6.37574 9.62444 5.05884 7.99997 5.05884C6.37549 5.05884 5.05859 6.37574 5.05859 8.00021C5.05859 9.62469 6.37549 10.9416 7.99997 10.9416Z" fill="url(#paint8_linear_2506_40962)"/>
</g>
<g filter="url(#filter8_d_2506_40962)">
<path d="M8.00058 10.5623C9.4156 10.5623 10.5627 9.41523 10.5627 8.00022C10.5627 6.5852 9.4156 5.43811 8.00058 5.43811C6.58557 5.43811 5.43848 6.5852 5.43848 8.00022C5.43848 9.41523 6.58557 10.5623 8.00058 10.5623Z" fill="url(#paint9_linear_2506_40962)"/>
</g>
<path d="M7.73725 9.45432C8.4076 9.45432 8.77257 8.99993 8.77257 8.33695C8.77257 7.68143 8.4076 7.22703 7.73725 7.22703C7.07435 7.22703 6.70193 7.68143 6.70193 8.33695C6.70193 8.99993 7.07435 9.45432 7.73725 9.45432ZM9.76319 5.04443V10.2588H8.8247V9.71504C8.57146 10.0652 8.21394 10.3333 7.55849 10.3333C6.52317 10.3333 5.71875 9.59586 5.71875 8.3444C5.71875 7.0855 6.52317 6.34803 7.55849 6.34803C8.09477 6.34803 8.56401 6.57896 8.76512 6.88437V5.04443H9.76319Z" fill="white"/>
</g>
<defs>
<filter id="filter0_d_2506_40962" x="0.969752" y="1.18276" width="13.6347" height="13.6349" filterUnits="userSpaceOnUse" color-interpolation-filters="sRGB">
<feFlood flood-opacity="0" result="BackgroundImageFix"/>
<feColorMatrix in="SourceAlpha" type="matrix" values="0 0 0 0 0 0 0 0 0 0 0 0 0 0 0 0 0 0 127 0" result="hardAlpha"/>
<feOffset dx="-0.211905"/>
<feGaussianBlur stdDeviation="0.181633"/>
<feComposite in2="hardAlpha" operator="out"/>
<feColorMatrix type="matrix" values="0 0 0 0 0 0 0 0 0 0 0 0 0 0 0 0 0 0 0.25 0"/>
<feBlend mode="normal" in2="BackgroundImageFix" result="effect1_dropShadow_2506_40962"/>
<feBlend mode="normal" in="SourceGraphic" in2="effect1_dropShadow_2506_40962" result="shape"/>
</filter>
<filter id="filter1_d_2506_40962" x="1.51174" y="1.72328" width="12.5537" height="12.5539" filterUnits="userSpaceOnUse" color-interpolation-filters="sRGB">
<feFlood flood-opacity="0" result="BackgroundImageFix"/>
<feColorMatrix in="SourceAlpha" type="matrix" values="0 0 0 0 0 0 0 0 0 0 0 0 0 0 0 0 0 0 127 0" result="hardAlpha"/>
<feOffset dx="-0.211905"/>
<feGaussianBlur stdDeviation="0.181633"/>
<feComposite in2="hardAlpha" operator="out"/>
<feColorMatrix type="matrix" values="0 0 0 0 0 0 0 0 0 0 0 0 0 0 0 0 0 0 0.25 0"/>
<feBlend mode="normal" in2="BackgroundImageFix" result="effect1_dropShadow_2506_40962"/>
<feBlend mode="normal" in="SourceGraphic" in2="effect1_dropShadow_2506_40962" result="shape"/>
</filter>
<filter id="filter2_d_2506_40962" x="2.04495" y="2.2571" width="11.4863" height="11.4862" filterUnits="userSpaceOnUse" color-interpolation-filters="sRGB">
<feFlood flood-opacity="0" result="BackgroundImageFix"/>
<feColorMatrix in="SourceAlpha" type="matrix" values="0 0 0 0 0 0 0 0 0 0 0 0 0 0 0 0 0 0 127 0" result="hardAlpha"/>
<feOffset dx="-0.211905"/>
<feGaussianBlur stdDeviation="0.181633"/>
<feComposite in2="hardAlpha" operator="out"/>
<feColorMatrix type="matrix" values="0 0 0 0 0 0 0 0 0 0 0 0 0 0 0 0 0 0 0.25 0"/>
<feBlend mode="normal" in2="BackgroundImageFix" result="effect1_dropShadow_2506_40962"/>
<feBlend mode="normal" in="SourceGraphic" in2="effect1_dropShadow_2506_40962" result="shape"/>
</filter>
<filter id="filter3_d_2506_40962" x="2.56936" y="2.782" width="10.4365" height="10.4364" filterUnits="userSpaceOnUse" color-interpolation-filters="sRGB">
<feFlood flood-opacity="0" result="BackgroundImageFix"/>
<feColorMatrix in="SourceAlpha" type="matrix" values="0 0 0 0 0 0 0 0 0 0 0 0 0 0 0 0 0 0 127 0" result="hardAlpha"/>
<feOffset dx="-0.211905"/>
<feGaussianBlur stdDeviation="0.181633"/>
<feComposite in2="hardAlpha" operator="out"/>
<feColorMatrix type="matrix" values="0 0 0 0 0 0 0 0 0 0 0 0 0 0 0 0 0 0 0.25 0"/>
<feBlend mode="normal" in2="BackgroundImageFix" result="effect1_dropShadow_2506_40962"/>
<feBlend mode="normal" in="SourceGraphic" in2="effect1_dropShadow_2506_40962" result="shape"/>
</filter>
<filter id="filter4_d_2506_40962" x="3.08206" y="3.29469" width="9.4111" height="9.41098" filterUnits="userSpaceOnUse" color-interpolation-filters="sRGB">
<feFlood flood-opacity="0" result="BackgroundImageFix"/>
<feColorMatrix in="SourceAlpha" type="matrix" values="0 0 0 0 0 0 0 0 0 0 0 0 0 0 0 0 0 0 127 0" result="hardAlpha"/>
<feOffset dx="-0.211905"/>
<feGaussianBlur stdDeviation="0.181633"/>
<feComposite in2="hardAlpha" operator="out"/>
<feColorMatrix type="matrix" values="0 0 0 0 0 0 0 0 0 0 0 0 0 0 0 0 0 0 0.25 0"/>
<feBlend mode="normal" in2="BackgroundImageFix" result="effect1_dropShadow_2506_40962"/>
<feBlend mode="normal" in="SourceGraphic" in2="effect1_dropShadow_2506_40962" result="shape"/>
</filter>
<filter id="filter5_d_2506_40962" x="3.57815" y="3.7903" width="8.41989" height="8.41989" filterUnits="userSpaceOnUse" color-interpolation-filters="sRGB">
<feFlood flood-opacity="0" result="BackgroundImageFix"/>
<feColorMatrix in="SourceAlpha" type="matrix" values="0 0 0 0 0 0 0 0 0 0 0 0 0 0 0 0 0 0 127 0" result="hardAlpha"/>
<feOffset dx="-0.211905"/>
<feGaussianBlur stdDeviation="0.181633"/>
<feComposite in2="hardAlpha" operator="out"/>
<feColorMatrix type="matrix" values="0 0 0 0 0 0 0 0 0 0 0 0 0 0 0 0 0 0 0.25 0"/>
<feBlend mode="normal" in2="BackgroundImageFix" result="effect1_dropShadow_2506_40962"/>
<feBlend mode="normal" in="SourceGraphic" in2="effect1_dropShadow_2506_40962" result="shape"/>
</filter>
<filter id="filter6_d_2506_40962" x="4.04983" y="4.26149" width="7.47751" height="7.47739" filterUnits="userSpaceOnUse" color-interpolation-filters="sRGB">
<feFlood flood-opacity="0" result="BackgroundImageFix"/>
<feColorMatrix in="SourceAlpha" type="matrix" values="0 0 0 0 0 0 0 0 0 0 0 0 0 0 0 0 0 0 127 0" result="hardAlpha"/>
<feOffset dx="-0.211905"/>
<feGaussianBlur stdDeviation="0.181633"/>
<feComposite in2="hardAlpha" operator="out"/>
<feColorMatrix type="matrix" values="0 0 0 0 0 0 0 0 0 0 0 0 0 0 0 0 0 0 0.25 0"/>
<feBlend mode="normal" in2="BackgroundImageFix" result="effect1_dropShadow_2506_40962"/>
<feBlend mode="normal" in="SourceGraphic" in2="effect1_dropShadow_2506_40962" result="shape"/>
</filter>
<filter id="filter7_d_2506_40962" x="4.48342" y="4.69557" width="6.60934" height="6.60922" filterUnits="userSpaceOnUse" color-interpolation-filters="sRGB">
<feFlood flood-opacity="0" result="BackgroundImageFix"/>
<feColorMatrix in="SourceAlpha" type="matrix" values="0 0 0 0 0 0 0 0 0 0 0 0 0 0 0 0 0 0 127 0" result="hardAlpha"/>
<feOffset dx="-0.211905"/>
<feGaussianBlur stdDeviation="0.181633"/>
<feComposite in2="hardAlpha" operator="out"/>
<feColorMatrix type="matrix" values="0 0 0 0 0 0 0 0 0 0 0 0 0 0 0 0 0 0 0.25 0"/>
<feBlend mode="normal" in2="BackgroundImageFix" result="effect1_dropShadow_2506_40962"/>
<feBlend mode="normal" in="SourceGraphic" in2="effect1_dropShadow_2506_40962" result="shape"/>
</filter>
<filter id="filter8_d_2506_40962" x="4.86331" y="5.07485" width="5.85055" height="5.8508" filterUnits="userSpaceOnUse" color-interpolation-filters="sRGB">
<feFlood flood-opacity="0" result="BackgroundImageFix"/>
<feColorMatrix in="SourceAlpha" type="matrix" values="0 0 0 0 0 0 0 0 0 0 0 0 0 0 0 0 0 0 127 0" result="hardAlpha"/>
<feOffset dx="-0.211905"/>
<feGaussianBlur stdDeviation="0.181633"/>
<feComposite in2="hardAlpha" operator="out"/>
<feColorMatrix type="matrix" values="0 0 0 0 0 0 0 0 0 0 0 0 0 0 0 0 0 0 0.25 0"/>
<feBlend mode="normal" in2="BackgroundImageFix" result="effect1_dropShadow_2506_40962"/>
<feBlend mode="normal" in="SourceGraphic" in2="effect1_dropShadow_2506_40962" result="shape"/>
</filter>
<linearGradient id="paint0_linear_2506_40962" x1="1" y1="8.0002" x2="15" y2="8.0002" gradientUnits="userSpaceOnUse">
<stop stop-color="#E83D3B"/>
<stop offset="0.14" stop-color="#DF3836"/>
<stop offset="0.69" stop-color="#C22727"/>
<stop offset="1" stop-color="#B82122"/>
</linearGradient>
<linearGradient id="paint1_linear_2506_40962" x1="1.56754" y1="8.51682" x2="14.4037" y2="7.46375" gradientUnits="userSpaceOnUse">
<stop stop-color="#EB584D"/>
<stop offset="0.19" stop-color="#E04B43"/>
<stop offset="0.7" stop-color="#C72E2C"/>
<stop offset="1" stop-color="#BE2424"/>
</linearGradient>
<linearGradient id="paint2_linear_2506_40962" x1="2.22967" y1="9.25448" x2="13.7354" y2="6.73109" gradientUnits="userSpaceOnUse">
<stop stop-color="#EE7160"/>
<stop offset="0.38" stop-color="#DA4E45"/>
<stop offset="0.78" stop-color="#C9312E"/>
<stop offset="1" stop-color="#C32726"/>
</linearGradient>
<linearGradient id="paint3_linear_2506_40962" x1="3.19368" y1="10.3755" x2="12.7584" y2="5.64203" gradientUnits="userSpaceOnUse">
<stop stop-color="#F18875"/>
<stop offset="0.06" stop-color="#ED806F"/>
<stop offset="0.49" stop-color="#D95149"/>
<stop offset="0.81" stop-color="#CC3431"/>
<stop offset="1" stop-color="#C82A29"/>
</linearGradient>
<linearGradient id="paint4_linear_2506_40962" x1="5.07691" y1="11.8853" x2="10.9402" y2="4.0705" gradientUnits="userSpaceOnUse">
<stop stop-color="#F49E8B"/>
<stop offset="0.19" stop-color="#EA8374"/>
<stop offset="0.56" stop-color="#DA544C"/>
<stop offset="0.84" stop-color="#D03734"/>
<stop offset="1" stop-color="#CD2D2B"/>
</linearGradient>
<linearGradient id="paint5_linear_2506_40962" x1="8.05258" y1="12.3304" x2="7.94736" y2="3.59285" gradientUnits="userSpaceOnUse">
<stop stop-color="#F7B3A2"/>
<stop offset="0.28" stop-color="#EA867A"/>
<stop offset="0.6" stop-color="#DD5751"/>
<stop offset="0.86" stop-color="#D53A37"/>
<stop offset="1" stop-color="#D2302E"/>
</linearGradient>
<linearGradient id="paint6_linear_2506_40962" x1="9.77118" y1="11.4596" x2="6.25063" y2="4.69085" gradientUnits="userSpaceOnUse">
<stop stop-color="#F9C8B9"/>
<stop offset="0.34" stop-color="#EB8A80"/>
<stop offset="0.64" stop-color="#E05A55"/>
<stop offset="0.87" stop-color="#DA3D3A"/>
<stop offset="1" stop-color="#D83331"/>
</linearGradient>
<linearGradient id="paint7_linear_2506_40962" x1="10.2366" y1="10.5706" x2="5.78588" y2="5.53112" gradientUnits="userSpaceOnUse">
<stop stop-color="#FCDBD1"/>
<stop offset="0.06" stop-color="#F9CDC4"/>
<stop offset="0.39" stop-color="#ED8D86"/>
<stop offset="0.67" stop-color="#E45D59"/>
<stop offset="0.88" stop-color="#DF403E"/>
<stop offset="1" stop-color="#DD3634"/>
</linearGradient>
<linearGradient id="paint8_linear_2506_40962" x1="10.2289" y1="9.95513" x2="5.79088" y2="6.11351" gradientUnits="userSpaceOnUse">
<stop stop-color="#FDEDE8"/>
<stop offset="0.12" stop-color="#F8D0CC"/>
<stop offset="0.43" stop-color="#EF908C"/>
<stop offset="0.69" stop-color="#E7605E"/>
<stop offset="0.89" stop-color="#E34341"/>
<stop offset="1" stop-color="#E23937"/>
</linearGradient>
<linearGradient id="paint9_linear_2506_40962" x1="10.0697" y1="9.51211" x2="5.9341" y2="6.48644" gradientUnits="userSpaceOnUse">
<stop stop-color="white"/>
<stop offset="0.03" stop-color="#FCEBEB"/>
<stop offset="0.1" stop-color="#F7C2C1"/>
<stop offset="0.18" stop-color="#F39E9D"/>
<stop offset="0.26" stop-color="#EF807E"/>
<stop offset="0.35" stop-color="#ED6765"/>
<stop offset="0.45" stop-color="#EA5452"/>
<stop offset="0.57" stop-color="#E94745"/>
<stop offset="0.72" stop-color="#E83F3D"/>
<stop offset="1" stop-color="#E83D3B"/>
</linearGradient>
<clipPath id="clip0_2506_40962">
<rect width="14" height="14" fill="white" transform="translate(1 1)"/>
</clipPath>
</defs>
</svg>
