<svg width="56" height="56" viewBox="0 0 56 56" fill="none" xmlns="http://www.w3.org/2000/svg">
<g clip-path="url(#clip0_1526_10553)">
<path d="M56 28C56 12.536 43.464 0 28 0C12.536 0 0 12.536 0 28C0 43.464 12.536 56 28 56C43.464 56 56 43.464 56 28Z" fill="#F2F2F2"/>
<mask id="mask0_1526_10553" style="mask-type:luminance" maskUnits="userSpaceOnUse" x="14" y="14" width="28" height="28">
<path d="M42 14H14V42H42V14Z" fill="white"/>
</mask>
<g mask="url(#mask0_1526_10553)">
<path d="M41.44 28.3178C41.44 27.3251 41.351 26.3705 41.1855 25.4541H28V30.8696H35.5345C35.21 32.6196 34.2237 34.1023 32.741 35.0951V38.6078H37.2655C39.9127 36.1705 41.44 32.5814 41.44 28.3178Z" fill="#4285F4"/>
<path d="M28.0002 42.0002C31.7802 42.0002 34.9493 40.7465 37.2656 38.6084L32.741 35.0956C31.4875 35.9356 29.8838 36.4319 28.0002 36.4319C24.3538 36.4319 21.2675 33.9692 20.1665 30.6602H15.4893V34.2874C17.793 38.8629 22.5275 42.0002 28.0002 42.0002Z" fill="#34A853"/>
<path d="M20.1663 30.6601C19.8863 29.8202 19.7273 28.9229 19.7273 28.0002C19.7273 27.0774 19.8863 26.1802 20.1663 25.3402V21.7129H15.489C14.541 23.6029 14 25.7411 14 28.0002C14 30.2592 14.541 32.3974 15.489 34.2874L20.1663 30.6601Z" fill="#FBBC04"/>
<path d="M28.0002 19.5682C30.0556 19.5682 31.901 20.2745 33.352 21.6618L37.3675 17.6463C34.943 15.3873 31.7738 14 28.0002 14C22.5275 14 17.793 17.1373 15.4893 21.7127L20.1665 25.34C21.2675 22.031 24.3538 19.5682 28.0002 19.5682Z" fill="#E94235"/>
</g>
</g>
<defs>
<clipPath id="clip0_1526_10553">
<rect width="56" height="56" fill="white"/>
</clipPath>
</defs>
</svg>
