<svg width="69" height="33" viewBox="0 0 69 33" fill="none" xmlns="http://www.w3.org/2000/svg">
<path d="M34.5 0L40 8H29L34.5 0Z" fill="#C31C20"/>
<rect y="8" width="69" height="25" rx="4" fill="#C31C20"/>
<path d="M12.4473 23.3477H11.3457V21.0801H12.4473V23.3477ZM12.2246 17.6289C12.2246 18.2266 12.1035 18.7812 11.8613 19.293C11.6191 19.8008 11.2754 20.2383 10.8301 20.6055C10.3887 20.9688 9.86328 21.2383 9.25391 21.4141L8.72656 20.5703C9.26172 20.418 9.72266 20.1973 10.1094 19.9082C10.5 19.6152 10.7988 19.2734 11.0059 18.8828C11.2168 18.4922 11.3223 18.0742 11.3223 17.6289V17.377H12.2246V17.6289ZM12.4531 17.6289C12.4531 18.0508 12.5605 18.4512 12.7754 18.8301C12.9902 19.2051 13.293 19.5332 13.6836 19.8145C14.0781 20.0957 14.543 20.3105 15.0781 20.459L14.5625 21.3262C13.9531 21.1465 13.4199 20.8789 12.9629 20.5234C12.5098 20.1641 12.1602 19.7363 11.9141 19.2402C11.668 18.7402 11.5449 18.2031 11.5449 17.6289V17.377H12.4531V17.6289ZM14.8145 17.7344H9.00781V16.8262H14.8145V17.7344ZM12.4473 17.2305H11.3457V15.5781H12.4473V17.2305ZM17.0703 26.0195H15.9629V15.4902H17.0703V26.0195ZM8.43945 22.9844C9.3457 22.9766 10.1426 22.9648 10.8301 22.9492C11.5176 22.9336 12.2578 22.9004 13.0508 22.8496C13.8438 22.7988 14.5938 22.7227 15.3008 22.6211L15.3828 23.4355C14.6523 23.5723 13.8926 23.6758 13.1035 23.7461C12.3184 23.8125 11.5801 23.8535 10.8887 23.8691C10.1973 23.8848 9.42969 23.8926 8.58594 23.8926L8.43945 22.9844ZM26.3431 17.0137H19.599V16.1113H26.3431V17.0137ZM28.0072 21.1797H18.3978V20.2598H28.0072V21.1797ZM26.7884 16.9551C26.7884 17.623 26.7689 18.2324 26.7298 18.7832C26.6908 19.3301 26.597 19.9473 26.4486 20.6348L25.3529 20.541C25.4545 20.0605 25.5287 19.6113 25.5755 19.1934C25.6224 18.7754 25.6517 18.4082 25.6634 18.0918C25.6752 17.7754 25.681 17.3965 25.681 16.9551V16.1113H26.7884V16.9551ZM27.099 25.7676H19.6576V24.8535H27.099V25.7676ZM20.7591 24.9766H19.6576V22.2695H20.7591V24.9766ZM40.588 24.7363H30.9786V23.8164H40.588V24.7363ZM36.3048 24.209H35.2149V21.6484H36.3048V24.209ZM39.4102 19.5156H33.2579V21.5312H32.1505V18.625H38.3145V17.1484H32.1329V16.2402H39.4102V19.5156ZM39.6563 21.9648H32.1505V21.0508H39.6563V21.9648ZM48.8002 17.4707H42.0151V16.5625H48.8002V17.4707ZM50.5639 24.502H40.9897V23.5879H50.5639V24.502ZM49.31 17.6816C49.31 18.2988 49.3041 18.832 49.2924 19.2812C49.2807 19.7266 49.2475 20.2441 49.1928 20.834C49.1381 21.4238 49.0483 22.0684 48.9233 22.7676L47.7924 22.6621C47.9252 22.0059 48.0209 21.3887 48.0795 20.8105C48.142 20.2324 48.1791 19.7168 48.1909 19.2637C48.2026 18.8105 48.2084 18.2832 48.2084 17.6816V16.5625H49.31V17.6816ZM59.7078 23.1367H58.6004V15.502H59.7078V23.1367ZM60.0242 25.7852H52.8465V24.8652H60.0242V25.7852ZM53.9598 25.1992H52.8465V22.3633H53.9598V25.1992ZM54.0125 16.2109C54.5359 16.2109 55.0105 16.3223 55.4363 16.5449C55.866 16.7637 56.202 17.0723 56.4441 17.4707C56.6863 17.8652 56.8074 18.3125 56.8074 18.8125C56.8074 19.3203 56.6863 19.7715 56.4441 20.166C56.202 20.5605 55.866 20.8691 55.4363 21.0918C55.0105 21.3145 54.5359 21.4258 54.0125 21.4258C53.4891 21.4258 53.0145 21.3145 52.5887 21.0918C52.1668 20.8691 51.8328 20.5605 51.5867 20.166C51.3406 19.7715 51.2176 19.3203 51.2176 18.8125C51.2176 18.3125 51.3406 17.8652 51.5867 17.4707C51.8328 17.0723 52.1668 16.7637 52.5887 16.5449C53.0145 16.3223 53.4891 16.2109 54.0125 16.2109ZM54.0125 17.1836C53.6922 17.1836 53.4012 17.252 53.1395 17.3887C52.8777 17.5254 52.6727 17.7168 52.5242 17.9629C52.3797 18.209 52.3074 18.4922 52.3074 18.8125C52.3074 19.1328 52.3797 19.418 52.5242 19.668C52.6727 19.918 52.8777 20.1113 53.1395 20.248C53.4012 20.3848 53.6922 20.4531 54.0125 20.4531C54.3328 20.4531 54.6219 20.3848 54.8797 20.248C55.1375 20.1113 55.3406 19.918 55.4891 19.668C55.6375 19.418 55.7117 19.1328 55.7117 18.8125C55.7117 18.4922 55.6375 18.209 55.4891 17.9629C55.3406 17.7168 55.1375 17.5254 54.8797 17.3887C54.6219 17.252 54.3328 17.1836 54.0125 17.1836Z" fill="white"/>
</svg>
