<svg width="210" height="45" viewBox="0 0 210 45" fill="none" xmlns="http://www.w3.org/2000/svg">
    <path d="M17 0L24 12H10L17 0Z" fill="#8C8888"/>
    <rect y="12" width="210" height="33" rx="4" fill="#8C8888"/>
    <path d="M16.6367 28.7578H15.5293V23.4902H16.6367V28.7578ZM18.166 26.5371H16.3262V25.6113H18.166V26.5371ZM9.98047 28.002H8.86719V23.959H9.98047V28.002ZM9.72266 27.3809C10.5234 27.3848 11.3145 27.3535 12.0957 27.2871C12.8809 27.2168 13.6816 27.1016 14.498 26.9414L14.6328 27.8613C13.793 28.0293 12.9746 28.1484 12.1777 28.2188C11.3848 28.2891 10.5664 28.3242 9.72266 28.3242H8.86719V27.3809H9.72266ZM16.6367 31.9102H10.9766V33.4043H9.86914V31.0547H15.5234V30.123H9.85156V29.2383H16.6367V31.9102ZM17 33.8613H9.86914V32.959H17V33.8613ZM26.8588 33.9902H25.7455V23.4902H26.8588V33.9902ZM28.2416 28.5352H26.3197V27.5977H28.2416V28.5352ZM20.6595 26.4785C20.6595 27.2051 20.6068 27.9004 20.5013 28.5645C20.3998 29.2285 20.2201 29.8457 19.9623 30.416C19.7084 30.9863 19.3646 31.4434 18.931 31.7871L18.2103 30.9668C18.6166 30.666 18.9388 30.2695 19.1771 29.7773C19.4193 29.2812 19.5873 28.7578 19.681 28.207C19.7787 27.6523 19.8275 27.0762 19.8275 26.4785V25.0957H20.6595V26.4785ZM20.8763 26.4785C20.8763 27.0566 20.9154 27.6211 20.9935 28.1719C21.0755 28.7227 21.2338 29.2578 21.4681 29.7773C21.7025 30.293 22.0326 30.7188 22.4584 31.0547L21.8255 31.8691C21.3685 31.5176 21.0091 31.041 20.7474 30.4395C20.4857 29.8379 20.308 29.2012 20.2142 28.5293C20.1205 27.8574 20.0736 27.1738 20.0736 26.4785V25.0957H20.8763V26.4785ZM23.5834 26.4785C23.5834 27.1973 23.5345 27.8945 23.4369 28.5703C23.3431 29.2422 23.1673 29.873 22.9095 30.4629C22.6517 31.0527 22.2904 31.5215 21.8255 31.8691L21.222 31.0547C21.6361 30.7266 21.9584 30.3086 22.1888 29.8008C22.4232 29.2891 22.5814 28.7539 22.6634 28.1953C22.7494 27.6367 22.7923 27.0645 22.7923 26.4785V25.0957H23.5834V26.4785ZM23.847 26.4785C23.847 27.0918 23.8939 27.6758 23.9877 28.2305C24.0814 28.7852 24.2474 29.3047 24.4857 29.7891C24.724 30.2734 25.0502 30.666 25.4642 30.9668L24.7435 31.7871C24.3099 31.4473 23.9662 30.9941 23.7123 30.4277C23.4584 29.8613 23.2787 29.248 23.1732 28.5879C23.0716 27.9238 23.0209 27.2207 23.0209 26.4785V25.0957H23.847V26.4785ZM21.6146 25.4238H18.5736V24.5098H21.6146V25.4238ZM24.9779 25.4238H22.0482V24.5098H24.9779V25.4238ZM38.0066 29.168H28.3972V28.3125H38.0066V29.168ZM36.823 32.2148H30.6589V33.3516H29.5456V31.4766H35.7214V30.7031H29.5339V29.8945H36.823V32.2148ZM37.1511 33.8672H29.5456V33.082H37.1511V33.8672ZM36.7937 26.0391H30.7351V27.0996H29.6335V25.3008H35.6804V24.5508H29.6042V23.7656H36.7937V26.0391ZM36.9812 27.6211H29.6335V26.8418H36.9812V27.6211ZM49.4975 29.3906H42.185V28.4824H49.4975V29.3906ZM50.5991 32.6133H40.9897V31.6875H50.5991V32.6133ZM49.3979 25.3477H43.2866V28.875H42.185V24.4395H49.3979V25.3477ZM52.0379 30.6094C52.7684 30.6094 53.4305 30.5918 54.0242 30.5566C54.618 30.5215 55.2391 30.4512 55.8875 30.3457L55.9754 31.2422C55.3074 31.3555 54.6688 31.4336 54.0594 31.4766C53.4539 31.5195 52.7801 31.541 52.0379 31.541H51.3348V30.6094H52.0379ZM55.284 28.3945H52.407V30.9551H51.3348V27.4863H54.2117V25.5117H51.3172V24.5977H55.284V28.3945ZM60.0125 33.9902H58.9578V23.4902H60.0125V33.9902ZM59.2273 28.4941H57.2645V27.5859H59.2273V28.4941ZM57.5867 33.4629H56.5672V23.707H57.5867V33.4629ZM68.8224 25.4707H62.0373V24.5625H68.8224V25.4707ZM70.5861 32.502H61.0119V31.5879H70.5861V32.502ZM69.3322 25.6816C69.3322 26.2988 69.3263 26.832 69.3146 27.2812C69.3029 27.7266 69.2697 28.2441 69.215 28.834C69.1603 29.4238 69.0705 30.0684 68.9455 30.7676L67.8146 30.6621C67.9474 30.0059 68.0431 29.3887 68.1017 28.8105C68.1642 28.2324 68.2013 27.7168 68.213 27.2637C68.2248 26.8105 68.2306 26.2832 68.2306 25.6816V24.5625H69.3322V25.6816ZM76.2085 26.1328H70.9995V25.2363H76.2085V26.1328ZM73.6128 26.7598C74.0542 26.7598 74.4468 26.8633 74.7905 27.0703C75.1382 27.2734 75.4097 27.5586 75.605 27.9258C75.8003 28.293 75.898 28.7129 75.898 29.1855C75.898 29.6543 75.8003 30.0742 75.605 30.4453C75.4097 30.8125 75.1382 31.1016 74.7905 31.3125C74.4468 31.5234 74.0542 31.6289 73.6128 31.6289C73.1753 31.6289 72.7827 31.5234 72.4351 31.3125C72.0913 31.1016 71.8218 30.8105 71.6265 30.4395C71.4351 30.0684 71.3394 29.6504 71.3394 29.1855C71.3394 28.7207 71.4351 28.3027 71.6265 27.9316C71.8218 27.5605 72.0913 27.2734 72.4351 27.0703C72.7827 26.8633 73.1753 26.7598 73.6128 26.7598ZM73.6128 27.6914C73.3667 27.6914 73.1441 27.7559 72.9448 27.8848C72.7495 28.0098 72.5972 28.1855 72.4878 28.4121C72.3784 28.6348 72.3237 28.8926 72.3237 29.1855C72.3237 29.4746 72.3784 29.7324 72.4878 29.959C72.6011 30.1855 72.7554 30.3594 72.9507 30.4805C73.146 30.6016 73.3667 30.6621 73.6128 30.6621C73.8628 30.6621 74.0855 30.6016 74.2808 30.4805C74.48 30.3594 74.6362 30.1855 74.7495 29.959C74.8628 29.7324 74.9195 29.4746 74.9195 29.1855C74.9195 28.8926 74.8628 28.6348 74.7495 28.4121C74.6362 28.1855 74.48 28.0098 74.2808 27.8848C74.0855 27.7559 73.8628 27.6914 73.6128 27.6914ZM80.0112 33.9902H78.9507V23.4902H80.0112V33.9902ZM79.3023 28.7754H77.3804V27.8672H79.3023V28.7754ZM77.7437 33.498H76.6948V23.7363H77.7437V33.498ZM74.1695 25.793H73.0679V23.8008H74.1695V25.793ZM89.243 27.8848H86.3427V26.9883H89.243V27.8848ZM84.6083 26.1621C84.6083 26.9668 84.4872 27.7441 84.245 28.4941C84.0028 29.2402 83.661 29.9023 83.2196 30.4805C82.7782 31.0586 82.2665 31.502 81.6845 31.8105L80.9755 30.9082C81.5106 30.6543 81.9833 30.2793 82.3934 29.7832C82.8075 29.2832 83.1278 28.7168 83.3544 28.084C83.5809 27.4512 83.6942 26.8105 83.6942 26.1621V24.3633H84.6083V26.1621ZM84.8251 26.1621C84.8251 26.8066 84.9364 27.4336 85.1591 28.043C85.3856 28.6484 85.7001 29.1875 86.1024 29.6602C86.5087 30.1289 86.9735 30.4824 87.497 30.7207L86.829 31.623C86.243 31.3223 85.7313 30.8965 85.2938 30.3457C84.8602 29.791 84.5223 29.1543 84.2802 28.4355C84.0419 27.7129 83.9227 26.9551 83.9227 26.1621V24.3633H84.8251V26.1621ZM89.7938 34.0195H88.6864V23.4902H89.7938V34.0195ZM102.345 33.9902H101.22V23.4902H102.345V33.9902ZM99.2281 24.6211C99.2281 25.6914 99.0621 26.6816 98.7301 27.5918C98.402 28.498 97.8746 29.334 97.148 30.0996C96.4215 30.8613 95.4762 31.5215 94.3121 32.0801L93.7145 31.1777C94.7262 30.7012 95.5563 30.1465 96.2047 29.5137C96.857 28.8809 97.3395 28.1738 97.652 27.3926C97.9645 26.6113 98.1207 25.748 98.1207 24.8027V24.6211H99.2281ZM98.6012 25.5117H94.2242V24.6211H98.6012V25.5117ZM111.876 31.125H110.751V23.4902H111.876V31.125ZM113.405 27.5332H111.536V26.6074H113.405V27.5332ZM109.028 24.293C109.028 25.1953 108.831 26.0195 108.436 26.7656C108.042 27.5078 107.474 28.1504 106.731 28.6934C105.993 29.2324 105.11 29.6602 104.083 29.9766L103.608 29.0859C104.495 28.8203 105.253 28.4746 105.882 28.0488C106.515 27.6191 106.999 27.1309 107.335 26.584C107.671 26.0332 107.839 25.4434 107.839 24.8145V24.293H109.028ZM108.436 25.2188H104.054V24.293H108.436V25.2188ZM112.315 33.7852H105.214V32.8652H112.315V33.7852ZM106.327 33.2461H105.214V30.3516H106.327V33.2461ZM118.424 23.666C119.213 23.666 119.887 23.7363 120.446 23.877C121.004 24.0137 121.43 24.2168 121.723 24.4863C122.02 24.7559 122.168 25.082 122.168 25.4648C122.168 25.8555 122.02 26.1875 121.723 26.4609C121.43 26.7305 121.004 26.9355 120.446 27.0762C119.887 27.2168 119.213 27.291 118.424 27.2988C117.635 27.291 116.959 27.2168 116.397 27.0762C115.838 26.9355 115.409 26.7305 115.108 26.4609C114.811 26.1875 114.662 25.8555 114.662 25.4648C114.662 25.082 114.811 24.7559 115.108 24.4863C115.409 24.2168 115.838 24.0137 116.397 23.877C116.959 23.7363 117.635 23.666 118.424 23.666ZM118.424 24.4922C117.869 24.4922 117.397 24.5293 117.006 24.6035C116.619 24.6777 116.326 24.7891 116.127 24.9375C115.928 25.0859 115.828 25.2617 115.828 25.4648C115.828 25.6875 115.926 25.873 116.121 26.0215C116.317 26.166 116.608 26.2754 116.994 26.3496C117.381 26.4238 117.858 26.4609 118.424 26.4609C118.991 26.4609 119.467 26.4238 119.854 26.3496C120.241 26.2754 120.532 26.1641 120.727 26.0156C120.926 25.8633 121.026 25.6797 121.026 25.4648C121.026 25.2617 120.924 25.0879 120.721 24.9434C120.522 24.7988 120.227 24.6875 119.836 24.6094C119.45 24.5312 118.979 24.4922 118.424 24.4922ZM123.211 28.8281H113.637V27.9375H123.211V28.8281ZM121.998 32.0977H115.893V33.2637H114.797V31.2949H120.909V30.4688H114.78V29.6367H121.998V32.0977ZM122.303 33.8906H114.797V33.0293H122.303V33.8906ZM134.333 26.2031H131.644V25.3066H134.333V26.2031ZM134.972 28.8926H133.858V23.4902H134.972V28.8926ZM134.972 32.0039H129.224V33.5156H128.128V31.166H133.87V30.2695H128.11V29.3906H134.972V32.0039ZM135.329 33.8613H128.128V32.9766H135.329V33.8613ZM129.704 24.75C129.704 25.3984 129.587 26.002 129.353 26.5605C129.122 27.1152 128.786 27.5977 128.345 28.0078C127.907 28.4141 127.386 28.7246 126.78 28.9395L126.183 28.0488C126.722 27.8809 127.187 27.6309 127.577 27.2988C127.972 26.9629 128.276 26.5781 128.491 26.1445C128.706 25.707 128.814 25.2422 128.814 24.75V23.8359H129.704V24.75ZM129.915 24.75C129.915 25.1953 130.017 25.6211 130.22 26.0273C130.427 26.4336 130.722 26.793 131.105 27.1055C131.491 27.418 131.942 27.6602 132.458 27.832L131.866 28.6934C131.288 28.4863 130.782 28.1895 130.349 27.8027C129.915 27.4121 129.581 26.957 129.347 26.4375C129.116 25.9141 129.001 25.3516 129.001 24.75V23.8359H129.915V24.75ZM144.186 27.082H141.918V26.168H144.186V27.082ZM144.983 29.7422H143.87V23.4902H144.983V29.7422ZM141.461 30.041C142.2 30.041 142.834 30.1191 143.366 30.2754C143.901 30.4316 144.309 30.6582 144.59 30.9551C144.875 31.248 145.018 31.6016 145.018 32.0156C145.018 32.4297 144.875 32.7832 144.59 33.0762C144.309 33.373 143.901 33.5996 143.366 33.7559C142.834 33.9121 142.2 33.9922 141.461 33.9961C140.731 33.9922 140.1 33.9121 139.569 33.7559C139.037 33.5996 138.629 33.373 138.344 33.0762C138.059 32.7832 137.916 32.4297 137.916 32.0156C137.916 31.6016 138.059 31.248 138.344 30.9551C138.629 30.6582 139.037 30.4316 139.569 30.2754C140.1 30.1191 140.731 30.041 141.461 30.041ZM141.461 30.8965C140.957 30.8965 140.52 30.9414 140.149 31.0312C139.782 31.1172 139.5 31.2441 139.305 31.4121C139.114 31.5801 139.018 31.7812 139.018 32.0156C139.018 32.2422 139.114 32.4395 139.305 32.6074C139.5 32.7754 139.782 32.9043 140.149 32.9941C140.52 33.0801 140.957 33.123 141.461 33.123C141.977 33.123 142.416 33.0801 142.78 32.9941C143.147 32.9043 143.426 32.7754 143.618 32.6074C143.813 32.4395 143.911 32.2422 143.911 32.0156C143.911 31.7812 143.813 31.5801 143.618 31.4121C143.426 31.2441 143.147 31.1172 142.78 31.0312C142.416 30.9414 141.977 30.8965 141.461 30.8965ZM139.774 25.3652C139.774 26.0098 139.653 26.6191 139.411 27.1934C139.172 27.7676 138.83 28.2715 138.385 28.7051C137.94 29.1348 137.418 29.4609 136.821 29.6836L136.241 28.793C136.772 28.6055 137.235 28.334 137.629 27.9785C138.028 27.623 138.332 27.2188 138.543 26.7656C138.754 26.3086 138.86 25.8418 138.86 25.3652V24.5508H139.774V25.3652ZM139.985 25.3535C139.985 25.7949 140.086 26.2246 140.289 26.6426C140.493 27.0566 140.786 27.4277 141.168 27.7559C141.551 28.0801 142 28.332 142.516 28.5117L141.948 29.3965C141.358 29.1895 140.848 28.8828 140.418 28.4766C139.989 28.0703 139.659 27.5977 139.428 27.0586C139.198 26.5156 139.082 25.9473 139.082 25.3535V24.5508H139.985V25.3535ZM142.246 25.1309H136.575V24.2109H142.246V25.1309ZM154.49 29.2324H153.383V23.4609H154.49V29.2324ZM156.031 26.8242H154.021V25.9219H156.031V26.8242ZM154.49 32.168H148.818V33.3516H147.722V31.377H153.383V30.5508H147.705V29.7363H154.49V32.168ZM154.853 33.8906H147.722V33.0527H154.853V33.8906ZM152.504 25.2598H146.252V24.3926H152.504V25.2598ZM149.381 25.6582C149.888 25.6582 150.336 25.7285 150.722 25.8691C151.109 26.0059 151.406 26.2051 151.613 26.4668C151.824 26.7246 151.929 27.0293 151.929 27.3809C151.929 27.7285 151.824 28.0332 151.613 28.2949C151.406 28.5527 151.109 28.752 150.722 28.8926C150.34 29.0332 149.892 29.1035 149.381 29.1035C148.873 29.1035 148.424 29.0332 148.033 28.8926C147.646 28.752 147.347 28.5527 147.136 28.2949C146.929 28.0332 146.826 27.7285 146.826 27.3809C146.826 27.0293 146.929 26.7246 147.136 26.4668C147.347 26.2051 147.646 26.0059 148.033 25.8691C148.424 25.7285 148.873 25.6582 149.381 25.6582ZM149.381 26.4609C149.088 26.4609 148.828 26.5 148.601 26.5781C148.375 26.6523 148.201 26.7598 148.08 26.9004C147.959 27.0371 147.898 27.1973 147.898 27.3809C147.898 27.5645 147.959 27.7266 148.08 27.8672C148.201 28.0039 148.373 28.1094 148.595 28.1836C148.818 28.2539 149.08 28.2891 149.381 28.2891C149.685 28.2891 149.949 28.2539 150.172 28.1836C150.394 28.1094 150.568 28.0039 150.693 27.8672C150.818 27.7266 150.881 27.5645 150.881 27.3809C150.881 27.1895 150.818 27.0273 150.693 26.8945C150.568 26.7578 150.392 26.6523 150.166 26.5781C149.943 26.5 149.681 26.4609 149.381 26.4609ZM149.937 25.002H148.83V23.3965H149.937V25.002ZM164.012 24.416C164.012 25.0645 163.821 25.6621 163.438 26.209C163.055 26.7559 162.536 27.2109 161.879 27.5742C161.227 27.9336 160.508 28.1758 159.723 28.3008L159.278 27.4043C159.958 27.3145 160.584 27.1211 161.159 26.8242C161.733 26.5273 162.188 26.168 162.524 25.7461C162.864 25.3242 163.034 24.8809 163.034 24.416V23.8477H164.012V24.416ZM164.188 24.416C164.188 24.877 164.358 25.3203 164.698 25.7461C165.041 26.168 165.502 26.5273 166.081 26.8242C166.663 27.1211 167.29 27.3145 167.961 27.4043L167.522 28.3008C166.733 28.1758 166.012 27.9316 165.36 27.5684C164.708 27.2051 164.188 26.75 163.801 26.2031C163.415 25.6562 163.221 25.0605 163.221 24.416V23.8477H164.188V24.416ZM164.135 33.9902H163.04V30.0352H164.135V33.9902ZM168.395 30.2637H158.821V29.3379H168.395V30.2637ZM174.835 30.4395C174.835 30.9238 174.741 31.3926 174.554 31.8457C174.37 32.2949 174.099 32.6934 173.739 33.041C173.384 33.3887 172.952 33.6562 172.445 33.8438L171.888 33.0293C172.325 32.8691 172.698 32.6523 173.007 32.3789C173.32 32.1016 173.558 31.7949 173.722 31.459C173.886 31.123 173.968 30.7832 173.968 30.4395V29.9355H174.835V30.4395ZM175.046 30.4395C175.046 30.791 175.116 31.1406 175.257 31.4883C175.398 31.832 175.609 32.1445 175.89 32.4258C176.171 32.707 176.519 32.9316 176.933 33.0996L176.476 33.9316C175.972 33.7402 175.552 33.4629 175.216 33.0996C174.884 32.7363 174.638 32.3262 174.478 31.8691C174.321 31.4121 174.243 30.9355 174.243 30.4395V29.9355H175.046V30.4395ZM178.691 30.4395C178.691 30.8926 178.609 31.3496 178.445 31.8105C178.284 32.2676 178.038 32.6836 177.706 33.0586C177.374 33.4375 176.964 33.7285 176.476 33.9316L176.007 33.0996C176.409 32.916 176.751 32.6758 177.032 32.3789C177.318 32.0781 177.529 31.7578 177.665 31.418C177.806 31.0781 177.876 30.752 177.876 30.4395V29.9355H178.691V30.4395ZM178.972 30.4395C178.972 30.8066 179.052 31.1602 179.212 31.5C179.372 31.8359 179.609 32.1387 179.921 32.4082C180.238 32.6777 180.614 32.8848 181.052 33.0293L180.507 33.8438C179.991 33.6641 179.554 33.4043 179.195 33.0645C178.835 32.7246 178.564 32.3301 178.38 31.8809C178.196 31.4277 178.105 30.9473 178.105 30.4395V29.9355H178.972V30.4395ZM180.109 29.4785H179.001V23.502H180.109V29.4785ZM174.413 24.0879C174.945 24.0879 175.421 24.1934 175.843 24.4043C176.269 24.6113 176.603 24.9043 176.845 25.2832C177.087 25.6582 177.208 26.0879 177.208 26.5723C177.208 27.0449 177.087 27.4688 176.845 27.8438C176.603 28.2188 176.269 28.5098 175.843 28.7168C175.421 28.9238 174.945 29.0273 174.413 29.0273C173.882 29.0273 173.404 28.9238 172.978 28.7168C172.556 28.5098 172.224 28.2188 171.982 27.8438C171.739 27.4688 171.618 27.0449 171.618 26.5723C171.618 26.0879 171.739 25.6582 171.982 25.2832C172.224 24.9043 172.556 24.6113 172.978 24.4043C173.404 24.1934 173.882 24.0879 174.413 24.0879ZM174.413 25.0312C174.085 25.0234 173.79 25.084 173.529 25.2129C173.271 25.3418 173.07 25.5254 172.925 25.7637C172.78 25.998 172.708 26.2676 172.708 26.5723C172.708 26.8652 172.78 27.1289 172.925 27.3633C173.07 27.5938 173.271 27.7734 173.529 27.9023C173.79 28.0312 174.085 28.0996 174.413 28.1074C174.741 28.0996 175.032 28.0312 175.286 27.9023C175.544 27.7734 175.745 27.5938 175.89 27.3633C176.038 27.1289 176.113 26.8652 176.113 26.5723C176.113 26.2676 176.04 25.998 175.896 25.7637C175.751 25.5254 175.55 25.3418 175.292 25.2129C175.034 25.084 174.741 25.0234 174.413 25.0312ZM184.26 24.2812C184.776 24.2812 185.233 24.4336 185.631 24.7383C186.034 25.043 186.348 25.4727 186.575 26.0273C186.801 26.582 186.915 27.2285 186.915 27.9668C186.915 28.709 186.801 29.3574 186.575 29.9121C186.348 30.4668 186.034 30.8965 185.631 31.2012C185.233 31.502 184.776 31.6523 184.26 31.6523C183.745 31.6523 183.284 31.502 182.878 31.2012C182.475 30.9004 182.161 30.4727 181.934 29.918C181.708 29.3594 181.594 28.709 181.594 27.9668C181.594 27.2285 181.708 26.582 181.934 26.0273C182.161 25.4727 182.475 25.043 182.878 24.7383C183.284 24.4336 183.745 24.2812 184.26 24.2812ZM184.26 25.2773C183.948 25.2773 183.669 25.3867 183.422 25.6055C183.176 25.8242 182.987 26.1367 182.854 26.543C182.725 26.9453 182.661 27.4199 182.661 27.9668C182.661 28.5098 182.725 28.9844 182.854 29.3906C182.987 29.7969 183.176 30.1094 183.422 30.3281C183.669 30.543 183.948 30.6504 184.26 30.6504C184.573 30.6504 184.852 30.543 185.098 30.3281C185.344 30.1094 185.534 29.7969 185.667 29.3906C185.799 28.9844 185.866 28.5098 185.866 27.9668C185.866 27.4199 185.797 26.9453 185.661 26.543C185.528 26.1367 185.34 25.8242 185.098 25.6055C184.86 25.3867 184.581 25.2773 184.26 25.2773ZM190.172 34.0195H189.065V23.4902H190.172V34.0195ZM189.551 28.3418H186.563V27.4336H189.551V28.3418ZM194.822 31.9629H193.726V28.8867H194.822V31.9629ZM198.736 31.9629H197.617V28.8867H198.736V31.9629ZM201.033 32.6836H191.424V31.7637H201.033V32.6836ZM196.211 24.0996C196.961 24.0996 197.629 24.2148 198.215 24.4453C198.801 24.6719 199.258 24.9941 199.586 25.4121C199.918 25.8262 200.084 26.3027 200.084 26.8418C200.084 27.3848 199.918 27.8633 199.586 28.2773C199.258 28.6875 198.801 29.0078 198.215 29.2383C197.629 29.4648 196.961 29.5781 196.211 29.5781C195.465 29.5781 194.797 29.4648 194.207 29.2383C193.621 29.0078 193.162 28.6875 192.83 28.2773C192.498 27.8633 192.332 27.3848 192.332 26.8418C192.332 26.3027 192.498 25.8262 192.83 25.4121C193.162 24.9941 193.621 24.6719 194.207 24.4453C194.797 24.2148 195.465 24.0996 196.211 24.0996ZM196.211 25.002C195.664 24.998 195.18 25.0723 194.758 25.2246C194.34 25.373 194.012 25.5879 193.773 25.8691C193.539 26.1465 193.422 26.4707 193.422 26.8418C193.422 27.2129 193.539 27.5391 193.773 27.8203C194.012 28.1016 194.342 28.3203 194.764 28.4766C195.185 28.6328 195.668 28.7109 196.211 28.7109C196.75 28.7109 197.23 28.6328 197.652 28.4766C198.074 28.3203 198.404 28.1016 198.643 27.8203C198.881 27.5391 199 27.2129 199 26.8418C199 26.4707 198.881 26.1465 198.643 25.8691C198.408 25.5879 198.08 25.373 197.658 25.2246C197.236 25.0723 196.754 24.998 196.211 25.002Z" fill="white"/>
</svg>
