<svg width="94" height="28" viewBox="0 0 94 28" fill="none" xmlns="http://www.w3.org/2000/svg">
    <path d="M87.8621 17.387C89.1948 17.387 89.741 16.9719 90.1124 16.2291H93.3677C92.603 18.5231 90.8989 19.9213 87.9058 19.9213C84.432 19.9213 81.9414 17.6273 81.9414 14.0443C81.9414 10.4613 84.3665 8.16736 87.7965 8.16736C91.4014 8.16736 93.8264 10.3521 93.4769 14.9838H85.2185C85.4152 16.6005 86.4638 17.387 87.8621 17.387ZM85.2622 12.7772H90.2872C90.2435 11.2697 89.1511 10.5487 87.8402 10.5487C86.5512 10.5487 85.5244 11.2479 85.2622 12.7772Z" fill="white"/>
    <path d="M80.3897 19.7025H77.1562V8.36364H80.3897V19.7025ZM77.1562 7.05279V4.40924H80.3897V7.05279H77.1562Z" fill="white"/>
    <path d="M69.1135 17.059C70.905 17.059 71.8882 15.8573 71.8882 14.0221C71.8882 12.2088 70.905 11.0072 69.1135 11.0072C67.322 11.0072 66.3171 12.2088 66.3171 14.0221C66.3171 15.8573 67.322 17.059 69.1135 17.059ZM75.0998 4.40924V19.7025H72.063V18.1732C71.2764 19.2219 70.2933 19.921 68.48 19.921C65.4432 19.921 63.1055 17.7799 63.1055 14.044C63.1055 10.2862 65.4432 8.14516 68.48 8.14516C69.9656 8.14516 71.3201 8.77874 71.8663 9.6308V4.40924H75.0998Z" fill="white"/>
    <path d="M54.3604 19.7019H51.127V8.36301H54.1638V10.1982C54.6881 8.99658 55.5839 8.14453 57.5283 8.14453C59.7786 8.14453 61.6356 9.21506 61.6356 12.7981V19.7019H58.4022V12.9947C58.4022 11.3998 57.6594 10.8536 56.4141 10.8536C55.125 10.8536 54.3604 11.5309 54.3604 13.1258V19.7019Z" fill="white"/>
    <path d="M49.0498 19.7025H45.8164V8.36364H49.0498V19.7025ZM45.8164 7.05279V4.40924H49.0498V7.05279H45.8164Z" fill="white"/>
    <path d="M37.9192 16.3373C39.6233 16.3373 40.5191 15.3105 40.5191 13.672C40.5191 12.0552 39.6233 11.0066 37.9192 11.0066C36.2151 11.0066 35.2975 12.0552 35.2975 13.672C35.2975 15.3105 36.2151 16.3373 37.9192 16.3373ZM40.4972 19.0246V18.0851C39.9292 18.9154 38.7931 19.1994 37.373 19.1994C34.7513 19.1994 32.0859 17.4297 32.0859 13.672C32.0859 9.89233 34.7295 8.14453 37.1764 8.14453C38.9679 8.14453 40.1477 8.84365 40.672 9.76125V8.36301H43.7088V18.7624C43.7088 22.1925 41.3274 23.5907 37.9629 23.5907C34.7295 23.5907 32.8069 22.411 32.2826 19.9859H35.6034C35.8656 20.7069 36.5428 21.2093 37.9629 21.2093C39.4049 21.2093 40.4972 20.6413 40.4972 19.0246Z" fill="white"/>
    <path d="M24.6907 16.3373C26.3948 16.3373 27.2906 15.3105 27.2906 13.672C27.2906 12.0552 26.3948 11.0066 24.6907 11.0066C22.9866 11.0066 22.069 12.0552 22.069 13.672C22.069 15.3105 22.9866 16.3373 24.6907 16.3373ZM27.2687 19.0246V18.0851C26.7007 18.9154 25.5646 19.1994 24.1445 19.1994C21.5228 19.1994 18.8574 17.4297 18.8574 13.672C18.8574 9.89233 21.501 8.14453 23.9479 8.14453C25.7394 8.14453 26.9192 8.84365 27.4435 9.76125V8.36301H30.4803V18.7624C30.4803 22.1925 28.0989 23.5907 24.7344 23.5907C21.501 23.5907 19.5784 22.411 19.0541 19.9859H22.3749C22.637 20.7069 23.3143 21.2093 24.7344 21.2093C26.1763 21.2093 27.2687 20.6413 27.2687 19.0246Z" fill="white"/>
    <path d="M17.2842 19.7025H14.0508V8.36364H17.2842V19.7025ZM14.0508 7.05279V4.40924H17.2842V7.05279H14.0508Z" fill="white"/>
    <path d="M6.00807 17.059C7.79956 17.059 8.7827 15.8573 8.7827 14.0221C8.7827 12.2088 7.79956 11.0072 6.00807 11.0072C4.21657 11.0072 3.21159 12.2088 3.21159 14.0221C3.21159 15.8573 4.21657 17.059 6.00807 17.059ZM11.9943 4.40924V19.7025H8.95748V18.1732C8.17097 19.2219 7.18783 19.921 5.37449 19.921C2.33768 19.921 0 17.7799 0 14.044C0 10.2862 2.33768 8.14516 5.37449 8.14516C6.86012 8.14516 8.21467 8.77874 8.76085 9.6308V4.40924H11.9943Z" fill="white"/>
</svg>
