<svg width="24" height="24" viewBox="0 0 24 24" fill="none" xmlns="http://www.w3.org/2000/svg">
    <path d="M11.9919 16.1376C12.2023 16.1376 12.38 16.065 12.525 15.9198C12.67 15.7745 12.7426 15.5966 12.7426 15.3862C12.7426 15.1758 12.6699 14.9981 12.5246 14.8531C12.3794 14.7081 12.2015 14.6357 11.9912 14.6357C11.7808 14.6357 11.6031 14.7083 11.4581 14.8536C11.313 14.9989 11.2405 15.1767 11.2405 15.3871C11.2405 15.5974 11.3131 15.7751 11.4584 15.9202C11.6037 16.0651 11.7815 16.1376 11.9919 16.1376ZM11.47 13.4991H12.5073C12.5168 13.1365 12.5699 12.8467 12.6667 12.6298C12.7636 12.4131 12.9985 12.1257 13.3716 11.7677C13.6957 11.4436 13.9439 11.1443 14.1162 10.8699C14.2886 10.5955 14.3748 10.2715 14.3748 9.89779C14.3748 9.26349 14.147 8.76803 13.6912 8.41139C13.2354 8.05489 12.6962 7.87663 12.0737 7.87663C11.4587 7.87663 10.9498 8.04076 10.5469 8.36903C10.144 8.69729 9.85659 9.08389 9.68466 9.52882L10.6311 9.90847C10.7209 9.66384 10.8744 9.42554 11.0917 9.19355C11.3089 8.96169 11.6315 8.84576 12.0595 8.84576C12.495 8.84576 12.8169 8.96501 13.0251 9.2035C13.2335 9.44211 13.3377 9.70449 13.3377 9.99063C13.3377 10.241 13.2664 10.4701 13.1237 10.6779C12.9811 10.8857 12.7993 11.0864 12.5782 11.2801C12.0945 11.7166 11.7889 12.0647 11.6614 12.3246C11.5338 12.5843 11.47 12.9758 11.47 13.4991ZM12.0013 19C11.0331 19 10.123 18.8163 9.2711 18.4488C8.41919 18.0814 7.67818 17.5827 7.04805 16.9529C6.41793 16.323 5.91903 15.5823 5.55134 14.7307C5.18378 13.8792 5 12.9694 5 12.0013C5 11.0331 5.18372 10.123 5.55116 9.2711C5.9186 8.41919 6.41725 7.67818 7.04713 7.04805C7.67701 6.41793 8.41772 5.91903 9.26926 5.55134C10.1208 5.18378 11.0306 5 11.9987 5C12.9669 5 13.877 5.18372 14.7289 5.55116C15.5808 5.9186 16.3218 6.41725 16.9519 7.04713C17.5821 7.67701 18.081 8.41772 18.4487 9.26926C18.8162 10.1208 19 11.0306 19 11.9987C19 12.9669 18.8163 13.877 18.4488 14.7289C18.0814 15.5808 17.5827 16.3218 16.9529 16.9519C16.323 17.5821 15.5823 18.081 14.7307 18.4487C13.8792 18.8162 12.9694 19 12.0013 19ZM12 17.8947C13.6456 17.8947 15.0395 17.3237 16.1816 16.1816C17.3237 15.0395 17.8947 13.6456 17.8947 12C17.8947 10.3544 17.3237 8.96053 16.1816 7.81842C15.0395 6.67632 13.6456 6.10526 12 6.10526C10.3544 6.10526 8.96053 6.67632 7.81842 7.81842C6.67632 8.96053 6.10526 10.3544 6.10526 12C6.10526 13.6456 6.67632 15.0395 7.81842 16.1816C8.96053 17.3237 10.3544 17.8947 12 17.8947Z" fill="#8C8888"/>
</svg>
