<svg width="211" height="44" viewBox="0 0 211 44" fill="none" xmlns="http://www.w3.org/2000/svg">
<path d="M198.255 29.2837C201.262 29.2837 202.495 28.3471 203.333 26.671H210.678C208.953 31.8472 205.108 35.0023 198.354 35.0023C190.515 35.0023 184.896 29.826 184.896 21.7411C184.896 13.6563 190.368 8.47998 198.107 8.47998C206.242 8.47998 211.714 13.4098 210.925 23.861H192.29C192.734 27.509 195.1 29.2837 198.255 29.2837ZM192.389 18.8819H203.727C203.629 15.4803 201.164 13.8535 198.206 13.8535C195.297 13.8535 192.98 15.431 192.389 18.8819Z" fill="white"/>
<path d="M181.394 34.5086H174.098V8.92294H181.394V34.5086ZM174.098 5.96506V0H181.394V5.96506H174.098Z" fill="white"/>
<path d="M155.949 28.5436C159.991 28.5436 162.209 25.8322 162.209 21.6911C162.209 17.5994 159.991 14.888 155.949 14.888C151.906 14.888 149.638 17.5994 149.638 21.6911C149.638 25.8322 151.906 28.5436 155.949 28.5436ZM169.456 0V34.5086H162.604V31.0578C160.829 33.4241 158.611 35.0016 154.519 35.0016C147.666 35.0016 142.392 30.1704 142.392 21.7404C142.392 13.2612 147.666 8.42996 154.519 8.42996C157.871 8.42996 160.928 9.85961 162.16 11.7822V0H169.456Z" fill="white"/>
<path d="M122.659 34.5069H115.363V8.9212H122.216V13.0622C123.399 10.3508 125.42 8.42822 129.808 8.42822C134.885 8.42822 139.076 10.8438 139.076 18.9287V34.5069H131.78V19.3724C131.78 15.7736 130.103 14.5412 127.293 14.5412C124.385 14.5412 122.659 16.0694 122.659 19.6682V34.5069Z" fill="white"/>
<path d="M110.679 34.5086H103.383V8.92294H110.679V34.5086ZM103.383 5.96506V0H110.679V5.96506H103.383Z" fill="white"/>
<path d="M85.562 26.915C89.4072 26.915 91.4285 24.598 91.4285 20.9006C91.4285 17.2526 89.4072 14.8863 85.562 14.8863C81.7167 14.8863 79.6462 17.2526 79.6462 20.9006C79.6462 24.598 81.7167 26.915 85.562 26.915ZM91.3792 32.9786V30.8588C90.0974 32.7322 87.5339 33.373 84.3295 33.373C78.4138 33.373 72.3994 29.3799 72.3994 20.9006C72.3994 12.3721 78.3645 8.42822 83.8859 8.42822C87.9283 8.42822 90.5904 10.0058 91.7735 12.0763V8.9212H98.626V32.3871C98.626 40.1269 93.2525 43.2819 85.6606 43.2819C78.3645 43.2819 74.0262 40.6198 72.8431 35.1478H80.3364C80.928 36.7746 82.4562 37.9084 85.6606 37.9084C88.9143 37.9084 91.3792 36.6267 91.3792 32.9786Z" fill="white"/>
<path d="M55.7134 26.915C59.5586 26.915 61.5798 24.598 61.5798 20.9006C61.5798 17.2526 59.5586 14.8863 55.7134 14.8863C51.8681 14.8863 49.7976 17.2526 49.7976 20.9006C49.7976 24.598 51.8681 26.915 55.7134 26.915ZM61.5305 32.9786V30.8588C60.2488 32.7322 57.6853 33.373 54.4809 33.373C48.5651 33.373 42.5508 29.3799 42.5508 20.9006C42.5508 12.3721 48.5158 8.42822 54.0372 8.42822C58.0797 8.42822 60.7418 10.0058 61.9249 12.0763V8.9212H68.7773V32.3871C68.7773 40.1269 63.4039 43.2819 55.812 43.2819C48.5159 43.2819 44.1776 40.6198 42.9945 35.1478H50.4878C51.0793 36.7746 52.6076 37.9084 55.812 37.9084C59.0656 37.9084 61.5305 36.6267 61.5305 32.9786Z" fill="white"/>
<path d="M39.0012 34.5086H31.7051V8.92294H39.0012V34.5086ZM31.7051 5.96506V0H39.0012V5.96506H31.7051Z" fill="white"/>
<path d="M13.557 28.5436C17.5994 28.5436 19.8178 25.8322 19.8178 21.6911C19.8178 17.5994 17.5994 14.888 13.557 14.888C9.51453 14.888 7.24682 17.5994 7.24682 21.6911C7.24682 25.8322 9.51453 28.5436 13.557 28.5436ZM27.0646 0V34.5086H20.2122V31.0578C18.4375 33.4241 16.219 35.0016 12.1273 35.0016C5.27489 35.0016 0 30.1704 0 21.7404C0 13.2612 5.27489 8.42996 12.1273 8.42996C15.4796 8.42996 18.5361 9.85961 19.7685 11.7822V0H27.0646Z" fill="white"/>
</svg>
